<svg width="35" height="33" viewBox="0 0 35 33" fill="none" xmlns="http://www.w3.org/2000/svg">
<path d="M33.9825 28.7117C32.5871 25.5232 28.9927 21.6919 27.5088 20.0247C27.1027 19.5682 27.0592 18.7785 27.4288 18.2737C30.2607 14.4099 32.5258 9.97031 33.3054 7.28762C33.6494 6.10254 32.9373 4.85043 31.9341 4.85043H29.0199C28.0593 4.85043 27.4971 5.28817 27.2292 5.98522C24.8756 12.1088 22.8567 14.7589 21.4435 16.3078C20.6522 17.1754 19.4184 16.4567 19.4184 15.1365C19.4184 12.5929 19.4184 9.30481 19.4184 6.97311C19.4184 5.84226 18.69 4.92733 17.7916 4.92733L12.4679 4.85043C11.7977 4.85043 11.4149 5.81367 11.8172 6.48902L12.6962 8.09114C13.0269 8.64622 13.2055 9.32157 13.2055 10.0147L13.2009 17.2296C13.2009 18.4847 12.0027 19.098 11.2915 18.2185C8.88507 15.243 6.79704 9.16678 6.04539 6.26128C5.82797 5.42029 5.20754 4.8524 4.50402 4.85043L1.63328 4.84155C0.55627 4.84155 -0.231107 6.13804 0.061636 7.4434C2.68467 19.1334 8.06663 30.2546 17.658 31.4604C18.603 31.5787 19.4184 30.6125 19.4184 29.4166V25.6247C19.4184 24.5373 20.09 23.6026 20.9535 23.575C20.9838 23.574 21.0141 23.574 21.0444 23.574C23.5812 23.574 26.4224 28.2621 27.4164 30.4548C27.7021 31.0858 28.2364 31.4703 28.8141 31.4703H32.6756C33.8024 31.4703 34.5253 29.9529 33.9825 28.7117Z" fill="white"/>
</svg>
