<svg width="35" height="33" viewBox="0 0 35 33" fill="none" xmlns="http://www.w3.org/2000/svg">
<path d="M34.5215 16.2016C34.5215 18.4585 34.5283 20.7154 34.5215 22.9786C34.5078 26.2567 32.8535 28.6838 29.9004 30.3986C28.1709 31.3946 26.25 31.8359 24.2129 31.8359C19.7558 31.8359 15.3056 31.8548 10.8486 31.8296C7.75194 31.8107 5.08592 30.802 2.97362 28.6838C1.66795 27.3726 0.888658 25.8281 0.663072 24.044C0.615221 23.6657 0.608385 23.2938 0.608385 22.9156C0.608385 18.4207 0.601549 13.9258 0.608385 9.43098C0.628893 6.14652 2.28319 3.71943 5.23631 2.0047C6.97948 1.00234 8.90721 0.567355 10.958 0.567355C15.4014 0.567355 19.8447 0.548443 24.2881 0.57366C27.3984 0.592572 30.0713 1.60754 32.1836 3.73834C33.4756 5.0433 34.248 6.58781 34.4668 8.35298C34.5556 9.04643 34.5146 9.73989 34.5215 10.427C34.5283 12.3561 34.5215 14.2789 34.5215 16.2016ZM3.14452 16.2016C3.14452 18.5153 3.13768 20.8226 3.14452 23.1362C3.15135 24.7248 3.78026 26.0928 4.95604 27.2276C6.53514 28.7469 8.50389 29.4845 10.7666 29.4971C15.2578 29.5223 19.7422 29.5034 24.2334 29.5034C25.6826 29.5034 27.0635 29.2134 28.3213 28.5452C30.6728 27.3032 31.999 25.475 31.999 22.9156C31.999 18.364 31.999 13.8187 31.999 9.26708C31.999 7.69104 31.3769 6.32934 30.208 5.2009C28.6426 3.6753 26.667 2.92511 24.4111 2.9125C19.8721 2.88098 15.3398 2.89989 10.8008 2.89989C9.38573 2.89989 8.04588 3.20879 6.81541 3.85181C4.47069 5.10004 3.13768 6.92824 3.14452 9.48772C3.14452 11.7257 3.14452 13.9637 3.14452 16.2016Z" fill="white"/>
<path d="M17.5888 22.8841C13.1728 22.8841 9.63182 19.6311 9.63865 15.5713C9.64549 11.6186 13.2344 8.37823 17.6162 8.38453C22.0185 8.38453 25.5732 11.6438 25.5664 15.6658C25.5595 19.65 21.9844 22.8841 17.5888 22.8841ZM17.5888 20.5515C20.5898 20.5515 23.0371 18.3514 23.0371 15.6469C23.0371 12.9298 20.6103 10.7171 17.6162 10.7171C14.6152 10.7171 12.1679 12.9172 12.1679 15.6217C12.1679 18.3388 14.5947 20.5515 17.5888 20.5515Z" fill="white"/>
<path d="M24.8144 7.79184C24.8144 6.89665 25.5595 6.17798 26.4892 6.17798C27.4189 6.17798 28.164 6.90295 28.164 7.79184C28.164 8.66812 27.4189 9.38679 26.5029 9.39309C25.5732 9.3994 24.8144 8.68703 24.8144 7.79184Z" fill="white"/>
</svg>
