<svg width="496" height="279" viewBox="0 0 496 279" fill="none" xmlns="http://www.w3.org/2000/svg">
<path d="M142.323 109.515C142.323 105.857 150.535 66.8073 123.863 52.0605C91.6038 54.2461 74.7025 21.6414 75.0375 0C75.005 0.884811 51.7519 35.1321 66.8866 52.0581C90.4134 78.2482 74.7597 80.2235 61.1723 78.3636C38.3565 75.2433 25.4924 67.6294 29.2917 60.7779C17.3577 59.6214 37.9213 102.339 26.9213 99.3462C23.0692 99.8085 16.9213 84.8788 10.9213 90.8653C16.9213 97.8495 26.8766 126.987 23.9782 130.618C11.9317 145.713 8.40873 141.455 2.24147 132.628C-22.1977 249.146 161.06 249.894 170.822 152.726C173.732 123.587 166.958 101.979 180 97.9591C149.413 85.0473 142.323 110.437 142.323 109.515Z" fill="url(#paint0_linear_57_3)"/>
<path fill-rule="evenodd" clip-rule="evenodd" d="M52.8681 231.214L108.254 223.298C108.229 223.543 108.543 226.519 108.957 229.894C109.722 236.062 110.864 245.466 112.734 260.762C113.287 265.303 114.002 271.072 114.303 273.588C114.617 276.104 114.868 278.19 114.868 278.221C114.868 278.267 100.912 278.298 83.868 278.298H52.8681V254.763V231.214Z" fill="#D8CECE"/>
<path fill-rule="evenodd" clip-rule="evenodd" d="M53.33 231.298L108.98 223.535C109.005 223.234 114.036 214.523 124.074 197.357C126.234 193.665 128.156 190.38 129.868 187.454L86.3579 186.623C84.3451 190.666 73.93 185.643 72.4211 190.358C72.1241 191.29 75.1091 188.625 71.4132 184.208C71.388 184.163 70.9214 184.418 70.3791 184.749C69.8495 185.08 65.9529 187.472 61.7285 190.06L54.0486 194.769L52.9011 193.325C52.2705 192.527 47.6679 186.825 42.6741 180.672L34.2703 170.298L34.0087 171.546C33.9583 174.194 33.7333 179.604 33.9855 181.635C34.2252 183.621 34.6792 185.682 35.234 187.337C35.6376 188.571 38.0588 194.453 46.7095 215.26C48.8406 220.39 51.1988 226.092 51.9553 227.943L53.33 231.298Z" fill="#D8CECE"/>
<path d="M151.608 140.547C148.913 142.45 146.9 144.968 145.571 148.101C144.239 151.233 143.401 155.428 143.056 160.683L151.608 140.547ZM154.661 156.998C151.699 163.371 148.884 166.812 143.056 160.685C137.227 154.556 130.593 152.796 125.464 151.957C120.334 151.118 108.144 153.392 103.5 156.641C98.8556 159.889 96.7812 147.842 96.7864 143.904C96.79 139.966 98.5705 133.873 104.854 133.811C111.137 133.749 111.179 132.008 114.599 127.731C118.018 123.454 145.251 132.04 155.254 143.549C157.381 146.229 157.623 150.626 154.661 156.998ZM88.4956 125.518C90.6399 115.076 90.3654 118.024 91.5057 112.206C98.1803 103.518 112.679 100.714 112.619 100.902C121.209 98.8563 125.076 105.94 130.758 114.05C134.822 119.923 141.634 127.189 139.28 132.457L88.4956 125.518ZM91.5057 112.206C92.7119 102.499 83.1987 93.0368 77.5302 92.17C69.0282 90.8703 59.8919 108.38 51.3197 126.97C42.7478 145.56 23.4139 179.368 37.7176 197.763C52.0205 216.158 91.4143 199.996 107.368 195.984C123.323 191.971 128.383 175.903 134.821 154.71L91.5057 112.206Z" fill="#FF0000"/>
<path fill-rule="evenodd" clip-rule="evenodd" d="M66.8681 211.298L128.696 189.274C142.694 164.858 143.785 163.49 144.151 162.613C145.145 160.223 145.108 158.136 144.027 155.535C143.778 154.915 140.039 147.761 135.728 139.655C131.43 131.548 126.66 122.564 125.132 119.691C123.616 116.817 122.2 114.231 121.989 113.944C121.517 113.293 120.846 112.673 120.349 112.462L120.349 112.461C119.753 112.204 118.883 112.25 117.976 112.598C117.504 112.779 113.765 114.881 109.665 117.271C105.566 119.661 97.7392 124.213 92.2732 127.404C86.8072 130.58 82.2107 133.333 82.0616 133.484C80.8566 134.815 81.925 139.428 84.2605 143.012C87.5029 147.973 92.7205 150.408 98.3605 149.576C101.168 149.168 103.702 148.245 106.932 146.43C107.814 145.931 108.622 145.523 108.721 145.508C108.932 145.477 114.262 157.803 114.113 157.955C114.051 158.015 113.703 158.212 113.33 158.393C112.249 158.938 108.833 161.055 107.379 162.068C99.0832 167.887 71.9778 200.826 66.8681 211.298Z" fill="#D8CECE"/>
<path d="M98.9462 78.0906C99.1115 78.121 99.3733 78.3031 99.5248 78.4852C100.021 79.062 112.254 103.513 112.116 103.665C112.02 103.771 106.992 106.412 93.6285 113.348C91.9202 114.228 91.3141 114.486 91.2038 114.349C91.1212 114.258 88.1593 108.916 84.6188 102.466C79.8383 93.7234 78.199 90.6271 78.199 90.2781C78.199 88.2443 82.1941 84.7838 88.3246 81.4752C93.2841 78.8191 96.921 77.6505 98.9463 78.0906H98.9462Z" fill="#D8CECE"/>
<path d="M73.7768 90.8397C74.1625 91.204 87.7184 116.277 87.5944 116.414C87.5394 116.474 84.7014 118.129 81.2987 120.087C76.6974 122.728 74.9202 123.82 74.3829 124.352C72.0823 126.613 71.8343 131.47 73.5839 139.438C73.8595 140.637 74.0523 141.654 74.0248 141.669C73.9972 141.699 71.8756 138.36 69.3133 134.247C66.7371 130.149 61.8189 122.272 58.3748 116.763C53.4291 108.855 52.0927 106.624 52.0515 106.184C51.955 105.228 52.4785 104.348 54.3659 102.268C55.3164 101.221 56.7078 99.84 57.4656 99.2177C64.3261 93.4958 72.2339 89.4282 73.7768 90.8397Z" fill="#D8CECE"/>
<path d="M50.7276 113.973C50.824 114.018 56.6652 122.73 63.705 133.309C73.9408 148.683 76.517 152.66 76.517 153.009C76.517 155.529 64.2973 167.731 61.7763 167.762C61.4732 167.762 59.2552 165.105 48.482 151.947C41.3596 143.25 34.9536 135.434 34.251 134.569C33.0249 133.051 32.9836 132.975 32.9836 132.277C32.9836 130.562 34.8985 127.435 38.3564 123.534C42.1587 119.239 45.9747 115.885 48.6197 114.489C49.4601 114.049 50.3969 113.821 50.7275 113.973H50.7276Z" fill="#D8CECE"/>
<path d="M33.3935 139.454C33.5313 139.56 39.524 146.815 46.729 155.572C61.4973 173.497 60.2023 171.66 59.3482 173.512C58.2047 176.001 54.7056 180.251 51.8263 182.649C50.9446 183.377 49.6083 184.09 49.2363 184.015C49.0159 183.969 42.362 177.458 25.2241 160.489C22.4688 157.758 21.0912 156.285 21.0361 156.027C20.5814 154.069 24.4939 147.255 28.7646 142.535C31.0653 140 32.746 138.877 33.3935 139.454V139.454Z" fill="#D8CECE"/>
<path d="M102.737 153.003C103.1 152.862 103.498 152.76 103.836 152.561C104.035 152.444 104.003 152.261 104.248 152.179" stroke="#FF0000" stroke-linecap="round"/>
<path d="M100.561 153.539C100.565 153.748 100.726 153.864 100.813 154.043C100.85 154.118 100.815 154.262 100.869 154.326C100.916 154.383 100.853 154.527 100.88 154.595C100.938 154.741 101.037 154.857 101.104 154.997C101.17 155.135 101.287 155.225 101.342 155.367C101.357 155.404 101.46 155.631 101.491 155.635C101.507 155.637 101.555 155.762 101.578 155.785C101.613 155.82 101.661 155.909 101.696 155.931C101.789 155.989 101.891 156.098 102.003 156.123C102.104 156.145 102.219 156.212 102.296 156.098C102.362 155.999 102.496 155.938 102.594 155.884C102.645 155.856 102.682 155.819 102.729 155.793C102.758 155.776 102.889 155.696 102.862 155.682" stroke="#FF0000" stroke-linecap="round"/>
<path d="M102.531 156.108C102.656 156.088 102.732 156.054 102.823 155.982C102.833 155.973 102.87 155.925 102.878 155.912C102.888 155.894 102.946 155.866 102.965 155.847C103.008 155.804 103.062 155.765 103.098 155.717C103.119 155.691 103.148 155.702 103.176 155.689C103.212 155.674 103.234 155.637 103.256 155.607C103.313 155.527 103.446 155.43 103.54 155.399" stroke="#FF0000" stroke-linecap="round"/>
<path d="M103.35 155.446C103.571 155.298 103.836 155.204 104.04 155.036C104.082 155.002 104.112 154.957 104.151 154.922C104.177 154.899 104.212 154.915 104.241 154.886C104.299 154.828 104.341 154.871 104.406 154.844C104.474 154.815 104.555 154.786 104.626 154.768C104.689 154.753 104.771 154.699 104.832 154.67C104.897 154.639 104.982 154.595 105.052 154.579C105.13 154.562 105.231 154.518 105.305 154.485C105.404 154.439 105.509 154.419 105.611 154.382C105.862 154.292 106.105 154.18 106.352 154.083C106.477 154.034 106.62 153.966 106.751 153.937C106.873 153.909 106.978 153.837 107.1 153.807C107.15 153.794 107.197 153.761 107.242 153.736C107.288 153.71 107.343 153.708 107.388 153.681C107.479 153.626 107.599 153.559 107.7 153.531C107.889 153.479 108.067 153.408 108.251 153.342C108.333 153.313 108.42 153.305 108.503 153.279C108.603 153.248 108.701 153.214 108.803 153.189C108.986 153.143 109.183 153.081 109.354 153C109.477 152.942 109.622 152.937 109.748 152.877C109.803 152.851 109.901 152.814 109.961 152.814C109.995 152.814 110.112 152.785 110.139 152.763C110.182 152.729 110.246 152.753 110.292 152.728C110.349 152.696 110.414 152.687 110.473 152.66C110.514 152.642 110.564 152.634 110.607 152.624C110.66 152.613 110.714 152.565 110.773 152.562C110.804 152.56 110.926 152.548 110.946 152.523C110.954 152.513 111.055 152.469 111.072 152.468C111.143 152.46 111.309 152.31 111.245 152.341" stroke="#FF0000" stroke-linecap="square"/>
<path d="M111.23 152.215C111.203 152.094 111.135 152.05 111.084 151.948C111.069 151.917 111.049 151.892 111.028 151.865C111.013 151.846 111.014 151.785 111 151.758C110.931 151.62 110.821 151.442 110.804 151.286C110.796 151.204 110.74 151.093 110.706 151.018C110.687 150.976 110.689 150.936 110.675 150.895C110.658 150.846 110.624 150.811 110.614 150.759C110.599 150.675 110.551 150.559 110.513 150.482C110.482 150.421 110.488 150.354 110.465 150.293C110.439 150.228 110.386 150.169 110.366 150.104C110.344 150.029 110.311 149.963 110.272 149.895C110.231 149.824 110.221 149.742 110.19 149.666C110.137 149.537 110.058 149.415 109.992 149.292C109.886 149.095 109.77 148.917 109.67 148.717C109.565 148.508 109.427 148.295 109.385 148.062C109.368 147.967 109.339 147.859 109.284 147.779C109.231 147.704 109.157 147.629 109.118 147.551" stroke="#FF0000" stroke-linecap="square"/>
<path d="M94.2294 114.047C93.9598 114.15 93.6698 114.211 93.4207 114.321C93.2702 114.388 92.9416 114.358 92.8546 114.532" stroke="#FF0000" stroke-linecap="square"/>
<path d="M101.754 118.682C101.487 118.817 101.227 118.966 100.951 119.08C100.616 119.217 100.271 119.33 99.9316 119.454C99.3756 119.658 98.8492 119.938 98.3574 120.268C97.8976 120.576 97.5292 120.994 97.043 121.265C96.9524 121.315 96.8629 121.367 96.7833 121.432C96.7785 121.436 96.74 121.442 96.7659 121.433C96.8945 121.388 97.0116 121.313 97.131 121.249C97.3612 121.125 97.5995 121.017 97.8289 120.892C98.0813 120.754 98.3059 120.579 98.5406 120.414C99.1013 120.021 99.7492 119.782 100.348 119.455C100.485 119.38 100.63 119.294 100.75 119.192C100.807 119.144 100.68 119.143 100.661 119.142C100.466 119.135 100.279 119.18 100.092 119.229C99.7136 119.329 99.3334 119.428 98.9672 119.565C98.496 119.742 98.0518 119.982 97.6017 120.205C97.2137 120.398 96.8159 120.564 96.424 120.747C96.3255 120.793 96.0167 120.903 95.9765 121.031C95.9584 121.088 96.2232 120.991 96.2234 120.991C96.9145 120.699 97.5769 120.35 98.2404 120C98.5797 119.821 98.9233 119.649 99.2593 119.463C99.3611 119.407 99.6665 119.271 99.5502 119.271C99.4045 119.271 99.2362 119.383 99.1086 119.438C98.6965 119.616 98.2864 119.796 97.8833 119.994C97.2898 120.287 96.7083 120.605 96.1249 120.917C95.6325 121.18 95.1314 121.445 94.6643 121.752C94.6635 121.752 94.3759 121.934 94.5264 121.909C94.7649 121.87 95.0156 121.732 95.2347 121.638C96.3787 121.148 97.4801 120.556 98.5777 119.971C98.9681 119.763 99.3674 119.547 99.7021 119.254C99.7369 119.223 100.009 118.998 99.8458 118.946C99.6641 118.889 99.3762 119.016 99.2071 119.061C98.7247 119.189 98.2526 119.337 97.7825 119.505C96.8433 119.84 95.8782 120.155 94.975 120.581C94.8636 120.633 94.5322 120.797 94.6458 120.749C94.84 120.668 95.0228 120.557 95.2161 120.472C96.0699 120.096 96.9176 119.709 97.7755 119.343C97.9024 119.289 98.2682 119.13 98.1303 119.13C98.0714 119.13 97.9769 119.191 97.9286 119.213C97.7468 119.295 97.5641 119.374 97.3814 119.453C96.288 119.927 95.1732 120.387 94.1601 121.021C93.9497 121.153 93.6606 121.312 93.5237 121.531C93.4748 121.61 93.5045 121.657 93.5898 121.63C93.7531 121.578 93.9141 121.471 94.0616 121.388C94.4475 121.17 94.8278 120.94 95.208 120.712C95.6491 120.448 96.0994 120.193 96.5306 119.913C96.6402 119.842 96.7708 119.75 96.876 119.67C96.9267 119.631 97.0642 119.547 97.0847 119.473C97.1093 119.383 96.7949 119.556 96.7903 119.559C96.4424 119.742 96.0866 119.909 95.74 120.095C95.2221 120.373 94.7199 120.677 94.2192 120.984C93.827 121.225 93.4235 121.454 93.0647 121.745C92.9311 121.853 92.7025 122.002 92.6381 122.174C92.608 122.254 92.6938 122.252 92.7436 122.235C92.934 122.17 93.0171 121.997 93.1366 121.854" stroke="#FF0000"/>
<path d="M101.125 121.5C101.075 121.511 101.038 121.536 100.996 121.564C100.984 121.573 100.97 121.577 100.959 121.586C100.951 121.592 100.945 121.599 100.938 121.605C100.926 121.615 100.909 121.622 100.895 121.626C100.881 121.63 100.868 121.642 100.855 121.649C100.833 121.66 100.815 121.678 100.793 121.689C100.757 121.707 100.718 121.72 100.684 121.742C100.632 121.778 100.579 121.81 100.525 121.844C100.445 121.894 100.357 121.93 100.276 121.98C100.234 122.005 100.195 122.014 100.148 122.027C100.088 122.045 100.035 122.03 99.9866 121.99C99.9385 121.951 99.8907 121.899 99.8681 121.84C99.8441 121.778 99.86 121.705 99.8754 121.642C99.8996 121.545 99.941 121.462 100.008 121.387C100.104 121.281 100.242 121.225 100.367 121.161C100.401 121.143 100.437 121.131 100.475 121.124C100.486 121.122 100.496 121.118 100.507 121.113C100.552 121.087 100.612 121.036 100.558 120.988C100.493 120.931 100.4 120.904 100.318 120.885C100.194 120.856 100.07 120.839 99.9423 120.837C99.7396 120.833 99.5338 120.894 99.3507 120.978C99.2816 121.01 99.211 121.041 99.1437 121.076C99.0869 121.106 99.0333 121.148 98.9716 121.167C98.9385 121.177 98.9018 121.181 98.8674 121.184C98.8362 121.186 98.808 121.198 98.7774 121.202C98.7481 121.206 98.7741 121.16 98.78 121.15C98.8164 121.088 98.8613 121.029 98.9071 120.974C98.9653 120.905 99.0208 120.837 99.1024 120.794C99.1863 120.75 99.2767 120.737 99.3672 120.714C99.4412 120.696 99.5093 120.666 99.5812 120.641C99.6398 120.621 99.6949 120.6 99.7504 120.572C99.7904 120.552 99.8345 120.53 99.8791 120.522C99.8818 120.522 99.9513 120.512 99.9458 120.508C99.9379 120.501 99.9183 120.504 99.9093 120.503C99.8672 120.5 99.8259 120.5 99.7839 120.505C99.7222 120.512 99.6619 120.528 99.6018 120.544C99.5052 120.568 99.4095 120.595 99.3186 120.636C99.1859 120.697 99.0518 120.785 98.9974 120.927C98.9737 120.988 98.9715 121.052 98.9662 121.117C98.9581 121.215 98.938 121.312 98.9091 121.406C98.8709 121.529 98.8051 121.637 98.6866 121.695C98.5824 121.746 98.4674 121.762 98.3548 121.785C98.2512 121.806 98.1489 121.835 98.0447 121.853C98.0215 121.857 97.9921 121.865 97.9681 121.863C97.949 121.861 98.0015 121.844 98.0191 121.836C98.0634 121.816 98.1099 121.803 98.155 121.785C98.2302 121.756 98.3008 121.716 98.3715 121.677C98.4296 121.645 98.4891 121.614 98.5389 121.57C98.5511 121.559 98.564 121.546 98.5734 121.533C98.5838 121.517 98.5795 121.509 98.582 121.492" stroke="#FF0000"/>
<path d="M99.3281 121.621C99.2583 121.652 99.1867 121.673 99.1122 121.689C98.9112 121.735 98.7097 121.777 98.5087 121.822C98.2236 121.886 97.9353 121.936 97.6515 122.006C97.4558 122.054 97.2546 122.107 97.0684 122.186C96.8062 122.296 97.5986 121.978 97.8581 121.862C98.0941 121.755 98.3298 121.646 98.5527 121.514C98.6268 121.47 98.7007 121.424 98.7674 121.369C98.7844 121.355 98.8306 121.323 98.8251 121.294C98.8156 121.245 98.6586 121.302 98.638 121.309C98.5735 121.33 98.5117 121.358 98.4499 121.386C98.3321 121.44 98.2145 121.493 98.0944 121.541C97.9879 121.584 97.8802 121.624 97.7704 121.657C97.6428 121.696 97.5123 121.723 97.3824 121.752C97.3052 121.77 97.2232 121.784 97.151 121.819C97.1467 121.821 97.1005 121.844 97.1324 121.847C97.1618 121.849 97.1945 121.844 97.2233 121.84C97.3162 121.829 97.4089 121.813 97.5011 121.796C97.6055 121.777 97.7087 121.753 97.8123 121.73C97.8449 121.723 97.8775 121.716 97.9102 121.709C97.9199 121.707 97.9474 121.697 97.9397 121.703C97.9236 121.716 97.8749 121.725 97.8581 121.73C97.7386 121.765 97.6175 121.794 97.4957 121.82C97.3187 121.858 97.1401 121.887 96.9635 121.927C96.7983 121.964 96.6356 122.011 96.4753 122.065C96.3999 122.091 96.3252 122.118 96.2515 122.149C96.2241 122.16 96.1944 122.172 96.1671 122.185C96.1586 122.188 96.1353 122.19 96.1419 122.197C96.1433 122.198 96.1457 122.196 96.1476 122.195C96.1751 122.184 96.158 122.19 96.1927 122.177C96.2672 122.15 96.3428 122.125 96.4175 122.098C96.6093 122.029 96.8016 121.951 96.9753 121.843C97.0311 121.809 97.1103 121.763 97.1343 121.696C97.1507 121.651 97.1026 121.64 97.0688 121.634C97.0089 121.624 96.947 121.626 96.8867 121.631C96.7472 121.643 96.6077 121.668 96.4709 121.697C96.1976 121.755 95.9185 121.84 95.6732 121.977C95.6223 122.005 95.5722 122.036 95.5265 122.072C95.5086 122.086 95.4642 122.116 95.472 122.146C95.4803 122.177 95.5337 122.18 95.5577 122.182C95.6443 122.19 95.7319 122.18 95.8179 122.171C96.0424 122.147 96.2683 122.112 96.4944 122.11C96.5495 122.109 96.6104 122.109 96.6632 122.128C96.7109 122.146 96.7048 122.175 96.6775 122.211C96.6385 122.261 96.5876 122.304 96.5369 122.342C96.4344 122.418 96.3222 122.483 96.2088 122.542C96.1034 122.597 95.9949 122.645 95.8858 122.692C95.8659 122.701 95.8218 122.719 95.799 122.728C95.7905 122.732 95.7718 122.746 95.773 122.737C95.7734 122.734 95.7777 122.734 95.7802 122.732C95.7947 122.724 95.8119 122.715 95.8268 122.709C95.9187 122.666 96.0142 122.631 96.1096 122.597C96.4319 122.484 96.763 122.394 97.0979 122.326C97.1967 122.306 97.296 122.288 97.3963 122.276C97.4183 122.274 97.4679 122.27 97.4939 122.27C97.502 122.271 97.5188 122.27 97.5169 122.278C97.514 122.29 97.4985 122.295 97.4878 122.301C97.4657 122.315 97.4307 122.332 97.4084 122.342C97.3449 122.373 97.2797 122.399 97.2148 122.426" stroke="#FF0000"/>
<path d="M98.0368 120.052C97.9716 119.962 97.8574 120.002 97.7612 120.019C97.2447 120.111 96.7342 120.223 96.2138 120.294C95.5696 120.382 94.9138 120.471 94.2626 120.483C94.2226 120.484 94.0363 120.504 93.9961 120.457C93.9555 120.409 94.2312 120.237 94.2402 120.231C94.8053 119.849 95.4592 119.578 96.0811 119.305C96.7524 119.011 97.4446 118.756 98.09 118.406C98.1956 118.348 98.3117 118.288 98.4033 118.208C98.4745 118.146 98.3904 118.163 98.3495 118.176C97.9356 118.308 97.5451 118.526 97.1705 118.741C96.4871 119.134 95.808 119.531 95.1213 119.918C94.8808 120.053 94.6417 120.191 94.4087 120.339C94.3085 120.402 94.2157 120.463 94.1217 120.534C94.0945 120.555 94.0168 120.611 93.9967 120.654C93.967 120.718 94.1193 120.684 94.1229 120.683C94.3722 120.639 94.6212 120.551 94.8586 120.466C95.6221 120.193 96.3581 119.826 97.0692 119.439C97.3509 119.285 97.6342 119.131 97.9061 118.96C98.136 118.816 98.3816 118.657 98.5609 118.449C98.5801 118.427 98.6712 118.325 98.6096 118.29C98.5079 118.232 98.2755 118.309 98.1777 118.329C97.423 118.485 96.6882 118.74 95.953 118.967C95.1834 119.205 94.4133 119.44 93.6565 119.717C93.5428 119.758 93.4294 119.803 93.3143 119.841C93.2899 119.849 93.3583 119.814 93.3816 119.803C93.8223 119.594 94.2828 119.429 94.7278 119.23C95.422 118.918 96.1194 118.586 96.7668 118.185C96.9405 118.077 97.1157 117.965 97.2768 117.839C97.3033 117.818 97.3845 117.752 97.4075 117.714C97.4257 117.683 97.3973 117.68 97.3768 117.683C97.2576 117.699 97.1267 117.757 97.0154 117.796C96.6504 117.921 96.2919 118.063 95.9395 118.221C95.1657 118.567 94.3708 118.956 93.7039 119.486C93.5085 119.641 93.3248 119.814 93.165 120.006C93.094 120.091 92.9411 120.254 92.9715 120.384C93.0131 120.562 93.401 120.272 93.454 120.242C94.0397 119.907 94.6311 119.583 95.2193 119.252C95.8355 118.906 96.4636 118.57 97.0449 118.166C97.1161 118.116 97.2241 118.054 97.2775 117.98C97.3106 117.934 97.1638 117.992 97.1102 118.011C96.573 118.196 96.0514 118.428 95.525 118.64C94.7155 118.967 93.9139 119.307 93.1201 119.67C92.9197 119.762 92.7194 119.855 92.5146 119.937C92.5142 119.937 92.3911 119.986 92.366 119.988C92.3509 119.99 92.3769 119.959 92.3877 119.949C92.6832 119.664 93.0422 119.427 93.3809 119.2C93.7944 118.922 94.2234 118.667 94.6458 118.403" stroke="#FF0000"/>
<path d="M93.1003 118.668C93.2288 118.531 93.3355 118.375 93.4643 118.238C93.7802 117.9 94.1518 117.648 94.5484 117.414C95.0894 117.095 95.6445 116.805 96.2119 116.536C96.7343 116.288 97.2525 116.04 97.7408 115.728C97.8435 115.663 98.1471 115.475 98.0285 115.503C97.9745 115.516 97.9191 115.566 97.8779 115.598C97.7132 115.726 97.5573 115.867 97.4024 116.007C96.9965 116.373 96.5917 116.74 96.1645 117.082C95.7373 117.424 95.2878 117.745 94.938 118.171C94.8729 118.25 94.8056 118.334 94.7586 118.426C94.749 118.445 94.727 118.494 94.7477 118.489C94.7746 118.483 94.8076 118.431 94.8214 118.413C94.8995 118.314 94.9745 118.217 95.0662 118.129C95.3586 117.847 95.6947 117.603 96.0363 117.385C96.4093 117.148 96.8126 116.932 97.2403 116.811C97.2616 116.805 97.377 116.762 97.4076 116.79C97.4352 116.814 97.3546 116.889 97.3505 116.893C97.0368 117.215 96.6162 117.44 96.2478 117.689C95.7751 118.009 95.3216 118.354 94.8727 118.705C94.746 118.805 94.6182 118.904 94.4978 119.011C94.3815 119.115 94.5353 119.021 94.5613 119.007C94.9317 118.812 95.3032 118.62 95.6724 118.422C96.2731 118.101 96.8889 117.789 97.4498 117.401C97.5244 117.349 98.0774 117.009 97.8612 116.852C97.7649 116.783 97.5916 116.802 97.4864 116.807C97.0975 116.827 96.7085 116.889 96.3253 116.955C95.5986 117.08 94.8847 117.257 94.1762 117.46C94.1197 117.476 93.1002 117.775 93.0965 117.742C93.0924 117.706 93.241 117.625 93.2502 117.619C93.383 117.533 93.5186 117.451 93.6526 117.368C94.1777 117.039 94.6899 116.696 95.1687 116.302C95.365 116.14 95.5614 115.975 95.7377 115.791C95.8428 115.682 95.9562 115.556 96.0139 115.413C96.1497 115.076 95.6499 115.275 95.5288 115.326C95.0613 115.523 94.6596 115.82 94.2819 116.154C93.8968 116.495 93.5465 116.849 93.297 117.303C93.2265 117.431 93.1615 117.563 93.1106 117.701C93.0883 117.761 93.0473 117.855 93.0606 117.922C93.0697 117.969 93.1312 117.915 93.1439 117.906C93.2807 117.811 93.4126 117.708 93.5399 117.601C93.887 117.309 94.2051 116.986 94.5113 116.652C94.8408 116.293 95.171 115.93 95.4372 115.52C95.4396 115.517 95.6292 115.234 95.5192 115.273C95.2888 115.354 95.0745 115.549 94.8855 115.695C94.4674 116.019 94.0672 116.366 93.643 116.681C93.4689 116.811 93.2892 116.932 93.1054 117.047C92.9968 117.115 92.8774 117.205 92.7543 117.248C92.7381 117.254 92.7661 117.215 92.7774 117.202C92.8343 117.137 92.8878 117.069 92.944 117.002C93.2632 116.626 93.6385 116.309 93.9903 115.964C94.3157 115.646 94.6443 115.317 94.9175 114.951C94.9404 114.921 95.2398 114.519 95.0457 114.552C94.9549 114.567 94.8627 114.616 94.7817 114.656C94.6315 114.73 94.4868 114.814 94.3434 114.901C93.9057 115.164 93.4681 115.445 93.074 115.771C92.9009 115.914 92.7245 116.071 92.5941 116.256C92.5082 116.378 92.7483 116.195 92.7645 116.182C92.9793 116.008 93.1897 115.812 93.3643 115.598C93.4729 115.464 93.5647 115.32 93.6494 115.17C93.7331 115.023 93.8242 114.866 93.866 114.7C93.8842 114.628 93.8967 114.542 93.7936 114.535C93.6853 114.528 93.5611 114.577 93.4662 114.624C93.2677 114.723 93.1004 114.907 92.9401 115.054C92.7308 115.247 92.508 115.43 92.3173 115.641C92.3106 115.649 92.0789 115.941 92.152 115.941C92.2241 115.941 92.3055 115.808 92.3384 115.76C92.451 115.596 92.5401 115.415 92.6249 115.236C92.7368 115 92.888 114.729 92.8459 114.455C92.84 114.417 93.0033 114.349 93.0375 114.311C93.1062 114.235 93.1124 114.141 93.1554 114.055C93.1699 114.026 93.1922 114.032 93.2214 114.032C93.2607 114.032 93.2537 114.037 93.2733 114.066" stroke="#FF0000"/>
<path d="M93.2272 114.193C93.1445 114.256 93.0641 114.319 92.9798 114.364C92.9497 114.38 92.9183 114.387 92.8869 114.401C92.8624 114.412 92.8375 114.432 92.812 114.444C92.7087 114.496 92.6019 114.574 92.4832 114.574C92.4354 114.574 92.3777 114.635 92.3333 114.655C92.3164 114.662 92.2591 114.697 92.2494 114.712C92.242 114.724 92.2196 114.754 92.2058 114.758C92.1508 114.773 92.1199 114.849 92.1199 114.903C92.1199 114.981 92.0392 115.023 92.0392 115.104" stroke="#FF0000"/>
<path d="M96.732 121.633C96.4219 122.123 96.0669 122.645 95.5852 122.983C95.3072 123.178 95.0178 123.36 94.7344 123.547C94.5452 123.672 94.3236 123.844 94.0916 123.876C93.9737 123.892 93.8525 123.858 93.7448 123.922C93.6798 123.96 93.6259 123.973 93.5483 123.961C93.414 123.94 93.3319 123.923 93.1946 123.963C93.1512 123.976 92.8936 124.061 92.8639 124.017C92.6295 123.665 93.0555 122.997 93.3055 122.789C93.6869 122.472 94.1939 122.274 94.6442 122.075C94.704 122.048 95.1473 121.792 95.0812 121.92C94.6651 122.721 93.7655 123.487 92.9125 123.751C92.853 123.769 91.9865 123.918 92.0663 123.744C92.2236 123.401 92.6808 123.149 92.9726 122.946C93.4273 122.629 93.8866 122.323 94.3321 121.994C94.5407 121.839 94.8733 121.642 94.5587 121.996C93.806 122.843 92.9341 123.492 91.8929 123.952C91.7985 123.994 91.3834 124.213 91.4143 123.977C91.4485 123.716 91.5525 123.485 91.6316 123.237C91.6528 123.171 91.8802 122.374 91.7264 122.389C91.4344 122.418 91.1574 122.705 90.9473 122.881C90.9067 122.915 90.3428 123.407 90.3531 123.411C90.414 123.435 90.804 123.065 90.8502 123.029C91.1681 122.784 91.5097 122.543 91.7727 122.236C91.9742 122.001 92.0984 121.729 92.2559 121.466C92.3116 121.374 92.4895 120.976 92.5865 120.937C92.6191 120.924 92.5696 121.006 92.5518 121.036C92.4494 121.211 92.3153 121.364 92.1958 121.527C91.8737 121.964 91.5633 122.422 91.2663 122.877C91.1044 123.125 90.921 123.395 90.8293 123.679C90.7668 123.873 90.8018 123.691 90.8317 123.603C91.1251 122.733 91.6622 121.951 92.0709 121.134C92.2853 120.705 92.4678 120.274 92.6073 119.816C92.6776 119.585 92.6143 119.641 92.5009 119.797C91.8926 120.637 91.4337 121.466 91.0721 122.438C90.9568 122.747 90.9899 122.315 90.9981 122.216C91.0352 121.767 91.224 121.333 91.4074 120.928C91.6714 120.345 92.6294 118.682 92.2744 119.215C92.0784 119.509 91.9186 119.848 91.738 120.153C91.4261 120.681 91.1457 121.239 90.9311 121.813C90.8832 121.941 90.5735 122.615 90.7161 122.743C90.7415 122.765 91.2304 122.084 91.2663 122.038C91.6363 121.557 91.9988 121.086 92.4177 120.646C92.6105 120.443 92.8118 120.249 93.0096 120.051C93.1211 119.94 93.3076 119.66 93.472 119.617C93.5037 119.608 93.2243 120.519 93.2061 120.565C92.9379 121.244 92.6035 121.918 92.2189 122.539C92.06 122.796 91.8847 123.041 91.7056 123.284C91.5755 123.46 91.3883 123.656 91.3403 123.878C91.3058 124.038 91.7136 123.437 91.7565 123.372C92.0872 122.87 92.387 122.349 92.7252 121.853C93.0105 121.434 93.4842 120.985 93.6246 120.486C93.8008 119.86 93.1743 120.57 93.079 120.717C92.8768 121.031 92.7708 121.367 92.6142 121.7C92.4977 121.948 92.5316 121.517 92.5379 121.457C92.5579 121.268 92.6188 121.105 92.6882 120.928C92.9387 120.288 93.2099 119.651 93.3888 118.986C93.5061 118.549 93.5275 118.065 93.5275 117.615C93.5275 117.514 93.5299 117.098 93.398 117.383C93.2477 117.709 93.1234 118.046 92.9865 118.378C92.7962 118.838 91.9795 120.093 92.2628 119.684C92.6463 119.13 92.9448 118.391 93.0443 117.728C93.0476 117.706 93.0942 117.219 92.9772 117.383C92.7839 117.655 92.6608 118.054 92.5264 118.357C92.2679 118.938 92.0212 119.498 91.6732 120.033C91.5182 120.271 91.1384 121.035 91.2478 120.773C91.5499 120.048 91.861 119.324 92.1541 118.595C92.2823 118.276 92.4038 117.978 92.4038 117.631C92.4038 117.522 92.4556 117.575 92.4177 117.665C92.0845 118.46 91.4886 119.192 91.3403 120.056C91.2793 120.411 91.4471 119.804 91.4744 119.737C91.6359 119.343 91.8367 118.976 91.9784 118.572C92.1074 118.204 92.2299 117.831 92.3437 117.457C92.3832 117.328 92.4455 116.929 92.4455 117.064C92.4455 117.299 92.2959 117.489 92.205 117.698C92.0466 118.061 91.8853 118.462 91.8073 118.852C91.7411 119.182 91.7825 118.949 91.8305 118.784C91.9213 118.473 92.051 118.176 92.1518 117.869C92.2557 117.552 92.3357 117.233 92.4038 116.907C92.4327 116.769 92.4605 116.646 92.5472 116.535C92.7955 116.216 92.3136 117.313 92.138 117.677C92.1075 117.74 91.8011 118.49 91.8235 118.086C91.8535 117.547 92.0425 117.102 92.2143 116.602C92.2542 116.486 92.3286 116.258 92.4246 116.181C92.6594 115.993 92.5455 115.181 92.3715 115.007C92.1132 114.748 92.3854 115.32 92.4015 115.409C92.4344 115.589 92.4754 115.828 92.383 115.994C92.3031 116.138 92.2944 116.323 92.2281 116.472C92.1519 116.644 92.0847 116.919 92.0709 117.106C92.0612 117.238 91.9656 117.39 91.9137 117.513C91.8758 117.603 91.91 117.709 91.8721 117.804C91.8432 117.876 91.8902 117.968 91.8397 118.033C91.7938 118.092 91.772 118.139 91.7472 118.211C91.7143 118.306 91.6898 118.386 91.6455 118.47C91.5151 118.716 91.4923 118.974 91.4443 119.238C91.4327 119.301 91.3351 119.459 91.301 119.534C91.2407 119.666 91.1907 119.824 91.1553 119.966C91.0982 120.195 91.0332 120.462 90.938 120.676C90.8264 120.927 90.8162 121.22 90.7068 121.466C90.5301 121.864 90.4829 122.294 90.3022 122.692C90.1183 123.096 90.1225 123.524 90.0294 123.943C89.977 124.178 89.6949 124.879 90.1565 124.879C90.3439 124.879 90.5251 124.796 90.7184 124.796C90.9193 124.796 91.1085 124.837 91.301 124.837C91.4873 124.837 91.6769 124.827 91.8628 124.837C92.0334 124.847 92.1934 124.994 92.3622 125.004C92.5061 125.012 92.6735 125.162 92.82 125.17C93.0191 125.182 93.2117 125.191 93.4026 125.212C93.7178 125.247 94.2508 125.175 94.5055 125.378C94.7535 125.577 95.283 125.193 95.317 124.921C95.3299 124.818 95.6953 124.588 95.7956 124.588C95.833 124.588 96.0005 124.47 96.0268 124.44C96.1104 124.342 96.2345 124.332 96.3366 124.276C96.5041 124.183 96.752 124.15 96.9007 124.026C97.0563 123.896 97.347 123.743 97.5412 123.672C97.7434 123.599 97.9299 123.491 98.0729 123.348C98.2451 123.176 98.5115 123.163 98.6879 123.006C98.7424 122.958 98.913 122.943 98.9376 122.9C98.9701 122.843 99.0678 122.776 99.1272 122.759C99.3453 122.697 99.5114 122.516 99.7492 122.463C99.9043 122.428 100.191 122.322 100.311 122.216C100.454 122.088 100.739 122.103 100.894 121.966C101.086 121.795 101.412 121.759 101.61 121.582C101.816 121.4 102.08 121.163 102.35 121.217" stroke="#FF0000"/>
<path d="M94.1321 124.798C94.2212 124.733 94.3128 124.678 94.4078 124.621C94.6513 124.477 94.8766 124.309 95.1027 124.139C95.4212 123.9 95.738 123.671 96.0906 123.484C96.4243 123.306 96.77 123.157 97.1164 123.007C97.3841 122.891 97.6492 122.77 97.911 122.641C98.0937 122.551 98.2772 122.454 98.469 122.384C98.5562 122.352 98.4449 122.431 98.4267 122.445C98.2775 122.557 98.1128 122.66 97.9489 122.748C97.696 122.883 97.4264 122.983 97.1615 123.092C96.7889 123.244 96.4241 123.414 96.0611 123.588C95.9147 123.658 95.768 123.728 95.6201 123.795C95.5512 123.826 95.4667 123.877 95.3906 123.892C95.3607 123.898 95.4304 123.845 95.4552 123.827C95.5423 123.765 95.6346 123.71 95.7264 123.655C96.5124 123.186 97.3373 122.785 98.1872 122.446C98.629 122.27 99.0765 122.102 99.507 121.898C99.6035 121.853 99.8823 121.695 99.7843 121.738C99.7055 121.772 99.6328 121.824 99.5604 121.869C99.3549 121.998 99.1455 122.12 98.9334 122.237C98.6687 122.384 98.4059 122.534 98.1354 122.671C97.9226 122.778 97.7063 122.863 97.4844 122.948C97.1322 123.084 96.7796 123.225 96.4387 123.387C96.1316 123.533 95.8175 123.662 95.5054 123.796C95.2173 123.92 94.9344 124.055 94.6389 124.16C94.5067 124.207 94.3695 124.269 94.2296 124.289C94.1495 124.301 94.0683 124.295 93.9879 124.302C93.8822 124.312 93.7765 124.355 93.685 124.41C93.6049 124.458 93.5325 124.527 93.4667 124.593C93.4315 124.628 93.4033 124.675 93.3659 124.708C93.3378 124.732 93.3204 124.734 93.2785 124.721C93.2242 124.706 93.1744 124.676 93.1209 124.658C93.0298 124.627 92.9378 124.604 92.8435 124.586C92.7713 124.571 92.702 124.543 92.6308 124.53C92.5635 124.518 92.4869 124.528 92.4187 124.528C92.3445 124.528 92.2764 124.498 92.2032 124.498C92.1634 124.498 92.1189 124.471 92.0806 124.46C91.9479 124.419 91.7971 124.404 91.6608 124.377C91.5161 124.349 91.3651 124.332 91.2175 124.327C91.1717 124.326 91.1227 124.337 91.075 124.337C90.9392 124.337 90.8029 124.291 90.6846 124.228C90.657 124.213 90.6256 124.2 90.6038 124.177C90.593 124.165 90.5811 124.148 90.5638 124.147C90.4954 124.143 90.5136 123.978 90.5136 123.936C90.5136 123.82 90.4668 123.71 90.4234 123.605C90.3747 123.487 90.3802 123.375 90.4011 123.252C90.427 123.101 90.3432 122.943 90.3432 122.789C90.3432 122.692 90.3785 122.599 90.3611 122.501C90.3439 122.404 90.3031 122.306 90.3031 122.208C90.3031 122.137 90.2804 122.075 90.2831 122.004C90.2849 121.956 90.3031 121.911 90.3031 121.861C90.3031 121.765 90.3304 121.651 90.3711 121.561C90.4012 121.494 90.4234 121.408 90.4234 121.335C90.4234 121.283 90.4415 121.238 90.4513 121.188C90.4621 121.132 90.446 121.073 90.4557 121.017C90.4644 120.967 90.4662 120.918 90.4786 120.869C90.4908 120.819 90.5056 120.763 90.5136 120.713C90.5302 120.609 90.5733 120.51 90.5938 120.407C90.6132 120.31 90.6337 120.197 90.674 120.107C90.7217 120.001 90.7543 119.891 90.7987 119.782C90.83 119.705 90.8428 119.625 90.8667 119.546C90.8948 119.453 90.9235 119.363 90.9324 119.265C90.9399 119.184 90.9383 119.114 90.9647 119.035C90.9778 118.995 90.9847 118.966 90.9847 118.924" stroke="#FF0000"/>
<path d="M90.8244 119.626C90.8797 119.571 90.9934 119.494 91.0226 119.418C91.0424 119.366 91.0635 119.319 91.08 119.266C91.0934 119.223 91.1234 119.172 91.1251 119.127C91.1261 119.1 91.1308 119.087 91.1451 119.063C91.1658 119.027 91.153 118.98 91.1707 118.945C91.2038 118.879 91.2053 118.802 91.2053 118.729C91.2053 118.62 91.2053 118.51 91.2053 118.401C91.2053 118.222 91.2368 118.032 91.2955 117.862C91.3328 117.754 91.3734 117.646 91.3879 117.531C91.3965 117.464 91.4073 117.399 91.4258 117.333C91.4445 117.267 91.4504 117.189 91.4765 117.126C91.5291 116.999 91.5395 116.864 91.594 116.737C91.6535 116.598 91.6937 116.446 91.7209 116.299C91.7449 116.169 91.782 116.043 91.8072 115.912C91.8189 115.852 91.8498 115.8 91.8568 115.737C91.864 115.672 91.8863 115.608 91.9069 115.547C91.9494 115.419 91.946 115.28 91.9832 115.152C91.9973 115.103 92.0482 114.931 92.0974 114.915" stroke="#FF0000"/>
<path d="M93.5107 113.863C93.4409 113.892 93.3588 113.909 93.2963 113.952C93.2637 113.975 93.2561 113.976 93.22 113.985C93.1791 113.996 93.1486 114.028 93.1103 114.042C93.0725 114.057 93.0862 114.076 93.0791 114.108C93.0681 114.158 92.9972 114.187 92.9544 114.194C92.9278 114.198 92.8808 114.223 92.8569 114.236C92.7947 114.27 92.7225 114.281 92.6631 114.321C92.6339 114.341 92.5978 114.362 92.5629 114.364C92.5249 114.367 92.4943 114.381 92.476 114.414C92.463 114.437 92.4376 114.431 92.4231 114.454C92.4055 114.481 92.3964 114.502 92.3635 114.514C92.3446 114.521 92.3383 114.552 92.3179 114.554C92.2953 114.557 92.2602 114.579 92.2382 114.589C92.2109 114.601 92.1419 114.609 92.1374 114.644C92.1337 114.674 92.0826 114.705 92.0695 114.735C92.0303 114.823 92.0116 114.92 91.9826 115.015C91.9595 115.091 91.9246 115.161 91.9069 115.238C91.8892 115.316 91.8658 115.402 91.8262 115.471C91.7799 115.552 91.7307 115.632 91.7064 115.723C91.6948 115.766 91.6872 115.813 91.6741 115.855C91.635 115.982 91.6137 116.115 91.5711 116.243C91.5325 116.359 91.5225 116.491 91.5037 116.611C91.4861 116.724 91.4313 116.83 91.4007 116.94C91.3847 116.997 91.3524 117.051 91.345 117.111C91.3367 117.178 91.317 117.247 91.3033 117.313C91.2764 117.441 91.2754 117.562 91.2754 117.694C91.2754 117.786 91.2909 117.892 91.2704 117.982C91.2425 118.105 91.3051 118.308 91.1652 118.385C91.1337 118.403 91.1451 118.372 91.1451 118.343C91.1451 118.313 91.1435 118.283 91.1451 118.253C91.1477 118.205 91.1656 118.163 91.1757 118.118C91.1833 118.083 91.2153 118.054 91.2153 118.018C91.2153 118.003 91.2079 118.05 91.203 118.065C91.1886 118.11 91.163 118.151 91.1451 118.195C91.1143 118.27 91.1003 118.34 91.0527 118.408C91.0176 118.458 90.9646 118.528 90.9552 118.589C90.94 118.687 90.8945 118.791 90.8945 118.892C90.8945 118.974 90.9246 119.048 90.9246 119.129C90.9246 119.16 90.912 119.259 90.9547 119.195" stroke="#FF0000"/>
<path d="M91.3756 118.524C91.2984 118.629 91.2177 118.731 91.1652 118.849C91.1448 118.895 91.1051 118.936 91.0705 118.97C90.9787 119.062 91.0077 119.229 90.929 119.33C90.9207 119.341 90.9084 119.343 90.8995 119.352C90.8834 119.368 90.8834 119.396 90.8745 119.416C90.8588 119.451 90.8246 119.47 90.8121 119.504C90.7924 119.557 90.7681 119.602 90.7464 119.656C90.7339 119.687 90.75 119.724 90.7364 119.756C90.7232 119.788 90.7298 119.84 90.7219 119.875C90.7065 119.942 90.6861 120.011 90.664 120.077C90.6527 120.111 90.6139 120.144 90.6139 120.177" stroke="#FF0000"/>
<path d="M90.5838 122.122C90.4893 122.155 90.4354 122.224 90.3533 122.276C90.3119 122.303 90.2454 122.321 90.1979 122.332C90.1541 122.342 90.1273 122.403 90.0949 122.435C90.0745 122.455 90.077 122.52 90.0832 122.548C90.1006 122.626 90.0592 122.672 90.028 122.743C89.9509 122.919 89.8233 123.061 89.7797 123.252C89.7481 123.392 89.7193 123.532 89.6672 123.666C89.6401 123.735 89.6299 123.818 89.5993 123.886C89.5817 123.925 89.5605 123.966 89.5475 124.006C89.5326 124.053 89.5348 124.102 89.5163 124.147C89.4857 124.222 89.4641 124.309 89.4612 124.39C89.4599 124.424 89.4596 124.457 89.469 124.49C89.4733 124.505 89.4667 124.523 89.4734 124.538C89.4789 124.549 89.4897 124.554 89.4912 124.568C89.4956 124.607 89.5455 124.65 89.5814 124.658C89.6416 124.671 89.7122 124.708 89.7674 124.733C89.8082 124.752 89.8758 124.738 89.92 124.738C89.9816 124.738 90.0433 124.737 90.1049 124.738C90.2199 124.74 90.3221 124.786 90.4234 124.728" stroke="#FF0000"/>
<path d="M90.6941 124.999C90.8316 125.028 90.9589 125.089 91.1006 125.089C91.1604 125.089 91.2152 125.079 91.2749 125.079C91.4093 125.079 91.5412 125.079 91.6769 125.079C91.7226 125.079 91.7662 125.068 91.8122 125.069C91.8686 125.07 91.929 125.1 91.9871 125.107C92.0441 125.113 92.1064 125.099 92.162 125.115C92.2196 125.131 92.2726 125.129 92.3329 125.129C92.4883 125.129 92.6446 125.136 92.799 125.117C92.8875 125.106 92.9752 125.112 93.0641 125.108C93.1686 125.104 93.2702 125.089 93.3754 125.089C93.5001 125.089 93.6241 125.078 93.749 125.079C93.8337 125.08 93.9176 125.098 94.0018 125.099C94.1496 125.101 94.3132 125.139 94.4573 125.105C94.5021 125.094 94.5481 125.104 94.5932 125.097C94.6436 125.089 94.6912 125.07 94.7413 125.061C94.8261 125.045 94.9229 125.049 95.0092 125.049C95.0716 125.049 95.1629 125.049 95.2225 125.031C95.2872 125.012 95.3569 125.018 95.4202 124.999C95.4675 124.984 95.5135 124.959 95.5633 124.959C95.6125 124.959 95.6617 124.959 95.7108 124.959C95.7834 124.959 95.8637 124.937 95.9364 124.929C96.0388 124.917 96.1505 124.833 96.2415 124.788C96.3273 124.747 96.4009 124.702 96.4782 124.648C96.5225 124.617 96.5745 124.598 96.618 124.566C96.6676 124.529 96.7125 124.493 96.7683 124.465C96.8277 124.436 96.8838 124.409 96.9387 124.372C96.9967 124.332 97.0761 124.303 97.1275 124.257C97.1684 124.22 97.1972 124.165 97.2372 124.125C97.2936 124.068 97.3428 124.007 97.3998 123.951C97.4231 123.928 97.449 123.907 97.4744 123.887C97.5062 123.861 97.5149 123.83 97.5357 123.797C97.5839 123.718 97.6724 123.681 97.749 123.636C97.8022 123.605 97.8461 123.556 97.901 123.528C97.9493 123.503 97.9925 123.48 98.0391 123.453C98.1109 123.411 98.1828 123.374 98.2518 123.33C98.2797 123.312 98.3136 123.305 98.3442 123.293C98.3745 123.28 98.4011 123.248 98.4322 123.232C98.4899 123.204 98.5344 123.166 98.5876 123.129C98.6505 123.086 98.7374 123.065 98.7908 123.012C98.828 122.975 98.853 122.946 98.8978 122.914C98.9429 122.881 98.9795 122.838 99.0236 122.804C99.0409 122.79 99.1743 122.699 99.1439 122.683" stroke="#FF0000"/>
<path d="M98.0613 123.205C98.2157 123.167 98.3847 123.151 98.5174 123.059C98.5771 123.018 98.6616 122.991 98.7329 122.983C98.8216 122.974 98.9072 122.908 98.9924 122.884C99.0397 122.87 99.0821 122.815 99.1288 122.804C99.1815 122.792 99.2121 122.763 99.2541 122.723C99.2767 122.702 99.3252 122.68 99.3544 122.669C99.4151 122.645 99.4657 122.609 99.5248 122.581C99.5856 122.552 99.6302 122.523 99.6852 122.483C99.7235 122.456 99.8 122.437 99.8233 122.393C99.8626 122.318 99.9458 122.322 99.9458 122.222" stroke="#FF0000"/>
<path d="M101.469 153.417C101.963 152.72 102.842 152.335 103.581 151.959C104.545 151.467 105.767 151.154 106.57 150.398C106.94 150.05 105.978 150.559 105.922 150.59C104.77 151.237 103.564 151.809 102.387 152.409C101.982 152.615 101.58 152.825 101.145 152.961C100.881 153.043 101.08 152.887 101.169 152.811C101.475 152.549 101.835 152.358 102.171 152.139C102.764 151.751 103.347 151.354 103.953 150.987C104.572 150.611 105.194 150.241 105.82 149.876C106.113 149.706 106.531 149.533 106.744 149.252C106.858 149.101 106.515 149.238 106.51 149.24C106.195 149.384 105.902 149.582 105.604 149.756C104.717 150.274 103.804 150.774 102.879 151.221C102.662 151.325 102.439 151.416 102.219 151.515C102.114 151.562 102.422 151.403 102.519 151.341C103.376 150.787 104.316 150.388 105.184 149.852C105.581 149.607 106.019 149.356 106.354 149.024C106.478 148.902 106.534 148.761 106.306 148.784C105.988 148.817 105.689 148.99 105.406 149.12C104.795 149.4 104.173 149.635 103.533 149.84C102.188 150.272 100.83 150.714 99.4707 151.101C99.3071 151.147 99.1952 151.169 99.4347 151.125C99.8424 151.048 100.244 150.93 100.641 150.813C101.77 150.479 102.941 150.056 103.959 149.456C104.086 149.382 104.774 148.898 104.344 149.273C103.677 149.854 102.903 150.175 102.096 150.524C101.634 150.724 101.173 150.919 100.746 151.188C100.657 151.243 100.419 151.417 100.524 151.41C100.8 151.391 101.074 151.264 101.328 151.167C101.842 150.97 102.361 150.789 102.879 150.602C103.82 150.264 104.671 149.813 105.553 149.354C106.025 149.108 105.463 149.572 105.349 149.708C104.699 150.483 104.102 151.327 103.485 152.13C103.275 152.404 102.529 153.31 103.362 153.24C105.411 153.067 111.214 150.856 109.327 151.674C108.608 151.985 107.9 152.342 107.197 152.688C106.278 153.14 105.358 153.714 104.329 153.861C104.195 153.88 103.184 154.06 103.431 153.678C103.816 153.083 104.644 152.774 105.244 152.475C105.905 152.144 106.706 151.821 107.269 151.329C107.674 150.974 106.292 151.78 105.802 152.001C104.989 152.366 103.914 152.753 103.365 153.501C103.005 153.993 104.499 153.392 104.566 153.363C105.573 152.923 106.625 152.507 107.578 151.959C107.63 151.929 108.538 151.325 108.28 151.377C108.038 151.425 107.818 151.558 107.596 151.659C107.064 151.9 106.511 152.068 105.958 152.253C104.839 152.626 103.649 153.135 102.783 153.963C102.437 154.294 102.935 153.846 103.035 153.699C103.201 153.456 103.386 153.171 103.629 152.997C103.853 152.837 103.416 153.445 103.377 153.483C102.9 153.96 102.349 154.371 101.841 154.815C101.518 155.098 101.807 154.7 101.835 154.539C101.878 154.292 101.933 154.003 101.889 153.753C101.843 153.486 101.676 152.724 101.835 152.943C101.894 153.023 101.856 154.051 101.784 154.092C101.268 154.383 101.361 153.791 101.361 153.453C101.361 153.222 101.439 153.255 101.67 153.255C102.125 153.255 102.634 153.206 103.068 153.369C103.777 153.635 103.065 154.733 102.687 154.974C102.331 155.202 101.997 154.604 101.715 154.443C101.551 154.349 101.986 154.309 101.994 154.308C102.614 154.239 103.252 154.194 103.875 154.176C104.357 154.162 104.286 154.281 103.917 154.524C103.539 154.774 103.041 155.073 102.585 155.136C102.269 155.18 101.811 154.717 102.048 154.389C102.216 154.156 103.575 153.851 103.575 154.173" stroke="#FF0000"/>
<path d="M101.037 154.497C100.773 154.026 100.483 153.572 100.239 153.093C100.052 152.727 99.8026 152.395 99.7138 151.986C99.638 151.637 99.7275 151.311 100.107 151.206C100.487 151.099 100.917 151.149 101.307 151.149C101.699 151.149 102.267 151.074 102.429 151.539C102.672 152.232 101.766 152.806 101.199 152.931C100.993 152.976 100.617 153.057 100.452 152.871C100.302 152.702 100.38 152.229 100.452 152.046C100.731 151.332 102.243 151.33 102.855 151.425C103.133 151.467 102.649 151.813 102.591 151.851C102.217 152.096 101.789 152.202 101.349 152.241C101.298 152.245 100.659 152.352 100.806 152.172C101 151.933 101.439 151.836 101.715 151.743C101.959 151.661 102.205 151.585 102.456 151.53C102.774 151.459 101.808 151.586 101.484 151.611C101.202 151.632 100.92 151.657 100.641 151.701C100.441 151.732 100.208 151.832 100.005 151.827C99.8664 151.823 100.306 151.267 100.335 151.233C100.528 151.002 100.807 150.759 100.863 150.446C100.869 150.411 100.835 150.03 100.779 150.08C100.671 150.176 100.554 150.295 100.389 150.284C100.321 150.28 100.731 150.184 100.773 150.173C101.225 150.065 101.677 149.97 102.132 149.879C102.506 149.805 102.903 149.619 103.254 149.474C103.632 149.319 103.918 149.06 104.278 148.88C104.399 148.82 104.546 148.746 104.68 148.721C104.777 148.703 104.782 148.606 104.872 148.556C105.043 148.46 105.288 148.292 105.469 148.232C105.661 148.168 105.855 148.088 106.033 147.989C106.187 147.904 106.347 147.861 106.492 147.788C106.651 147.708 106.743 147.676 106.912 147.626C107.181 147.546 107.184 147.5 107.272 147.803C107.459 148.446 106.815 148.816 106.474 149.252C105.918 149.963 107.089 149.145 107.266 148.988C107.454 148.821 107.583 148.605 107.758 148.43C107.778 148.411 107.938 148.371 107.914 148.418C107.815 148.617 107.554 148.791 107.413 148.961C107.363 149.022 106.839 149.647 107.095 149.597C107.552 149.509 108.354 148.897 108.487 148.43C108.528 148.288 108.305 148.663 108.22 148.784C107.956 149.164 107.568 149.449 107.326 149.84C106.943 150.459 107.927 149.741 108.058 149.636C108.22 149.508 108.467 149.217 108.67 149.159C108.734 149.141 108.602 149.274 108.562 149.327C108.424 149.515 108.289 149.701 108.139 149.879C107.903 150.162 107.617 150.446 107.422 150.758C107.274 150.996 107.699 150.772 107.764 150.734C108.075 150.554 108.365 150.306 108.616 150.05C108.89 149.772 108.648 149.867 108.466 150.026C108.369 150.111 107.13 151.291 107.716 151.191C108.114 151.122 108.499 150.861 108.862 150.692C109.057 150.602 109.468 150.295 109.156 150.617C108.875 150.909 108.552 151.178 108.322 151.515C108.26 151.606 108.087 151.841 108.31 151.788C108.565 151.727 108.863 151.467 109.06 151.299C109.164 151.211 109.201 151.032 109.354 151.041C109.715 151.061 109.08 151.751 109.042 151.797C108.986 151.864 108.762 152.313 108.679 152.304C108.549 152.289 108.492 152.296 108.382 152.394C108.165 152.587 107.744 152.903 108.277 152.793C108.585 152.729 108.892 152.475 109.192 152.445C109.539 152.41 110.086 152.293 110.161 151.881C110.18 151.776 110.249 151.565 110.161 151.5C109.859 151.273 109.547 151.163 109.27 150.879C108.963 150.563 109.202 149.882 108.895 149.636C108.829 149.584 108.834 149.369 108.787 149.285C108.662 149.06 109.162 149.663 109.246 149.906C109.277 149.995 109.804 151.154 109.918 151.008C110.112 150.759 109.774 150.661 109.735 150.524C109.659 150.258 109.583 150.001 109.45 149.744C109.2 149.262 108.675 148.979 108.436 148.502C108.37 148.37 108.363 148.185 108.331 148.043C108.297 147.891 108.243 147.503 108.112 147.434C107.906 147.325 107.788 147.023 107.788 146.801C107.788 146.521 108.349 146.628 108.478 146.732C108.678 146.892 108.56 147.128 108.79 147.26C108.964 147.359 108.887 147.52 109.003 147.662C109.103 147.784 109.254 147.788 109.138 147.962" stroke="#FF0000"/>
<path d="M99.106 150.009C99.1889 149.973 99.268 149.939 99.356 149.918C99.5116 149.879 99.673 149.893 99.8308 149.872C99.9136 149.861 99.9963 149.843 100.079 149.84C100.176 149.836 100.261 149.763 100.355 149.749C100.421 149.74 100.488 149.696 100.553 149.696C100.623 149.696 100.676 149.667 100.739 149.638C100.794 149.613 100.857 149.591 100.914 149.576C100.964 149.564 101.018 149.56 101.07 149.553C101.126 149.546 101.176 149.515 101.232 149.504C101.368 149.479 101.479 149.454 101.604 149.391C101.689 149.349 101.794 149.341 101.887 149.322C101.983 149.302 102.07 149.257 102.169 149.241C102.212 149.234 102.246 149.212 102.283 149.189C102.329 149.161 102.386 149.153 102.435 149.131C102.604 149.055 102.788 148.975 102.963 148.922C103.042 148.898 103.101 148.821 103.18 148.802C103.275 148.779 103.363 148.713 103.451 148.669C103.599 148.594 103.73 148.481 103.893 148.438C104.088 148.385 104.294 148.316 104.478 148.233C104.554 148.199 104.636 148.179 104.71 148.138C104.774 148.103 104.865 148.079 104.921 148.031C104.969 147.989 105.063 147.933 105.126 147.917C105.217 147.895 105.304 147.825 105.389 147.784C105.552 147.707 105.71 147.63 105.87 147.55C105.948 147.511 106.034 147.482 106.117 147.453C106.201 147.424 106.275 147.381 106.358 147.348C106.445 147.315 106.528 147.266 106.612 147.225C106.649 147.207 106.681 147.182 106.717 147.161C106.76 147.134 106.821 147.128 106.869 147.108C106.959 147.071 107.035 147.007 107.126 146.97C107.223 146.931 107.29 146.855 107.392 146.821C107.46 146.798 107.53 146.735 107.598 146.705C107.663 146.675 107.701 146.611 107.769 146.582C107.816 146.561 107.852 146.535 107.9 146.509C107.968 146.473 107.987 146.407 108.046 146.366C108.092 146.335 108.138 146.305 108.192 146.288C108.225 146.278 108.259 146.273 108.289 146.256C108.312 146.243 108.321 146.219 108.342 146.207C108.39 146.181 108.415 146.148 108.465 146.126C108.505 146.107 108.545 146.094 108.583 146.074C108.721 145.997 108.701 146.234 108.721 146.307C108.728 146.337 108.764 146.355 108.77 146.386C108.776 146.41 108.767 146.436 108.774 146.46C108.792 146.521 108.787 146.587 108.8 146.65C108.812 146.704 108.859 146.781 108.902 146.815C108.938 146.845 108.962 146.878 108.993 146.913C109.02 146.943 109.074 146.975 109.093 147.01C109.117 147.052 109.141 147.115 109.155 147.159C109.178 147.234 109.209 147.303 109.226 147.381C109.265 147.557 109.344 147.717 109.403 147.888C109.445 148.011 109.504 148.133 109.552 148.255C109.579 148.326 109.6 148.401 109.63 148.471C109.669 148.564 109.731 148.659 109.798 148.734C109.821 148.76 109.831 148.792 109.838 148.826C109.849 148.883 109.884 148.927 109.9 148.981C109.925 149.064 109.947 149.16 109.941 149.248C109.934 149.352 109.852 149.42 109.773 149.475C109.59 149.604 109.407 149.726 109.219 149.847C109.037 149.964 108.858 150.086 108.68 150.21C108.508 150.329 108.332 150.401 108.137 150.474C107.724 150.628 107.301 150.838 106.946 151.101C106.832 151.185 106.718 151.269 106.592 151.335C106.494 151.386 106.32 151.481 106.204 151.447C106.139 151.427 106.079 151.27 106.076 151.21C106.071 151.14 106.114 151.069 106.146 151.009C106.216 150.875 106.307 150.792 106.428 150.704C106.812 150.425 107.111 149.976 107.033 149.486C106.998 149.268 106.989 149.011 106.898 148.808C106.838 148.675 106.766 148.559 106.615 148.533C106.42 148.5 106.221 148.521 106.026 148.499C105.957 148.491 105.786 148.501 105.892 148.409C106.086 148.239 106.389 148.1 106.508 147.862" stroke="#FF0000"/>
<path d="M108.16 146.249C108.086 146.22 108.045 146.214 107.978 146.255C107.96 146.266 107.896 146.279 107.887 146.296C107.859 146.343 107.845 146.422 107.796 146.454C107.702 146.515 107.638 146.601 107.567 146.685C107.492 146.774 107.425 146.859 107.34 146.939C107.307 146.97 107.263 147.013 107.224 147.035C107.2 147.048 107.151 147.06 107.179 147.017C107.214 146.962 107.296 146.926 107.34 146.871C107.384 146.816 107.444 146.806 107.486 146.759C107.559 146.679 107.399 146.771 107.366 146.789C107.296 146.828 107.203 146.871 107.145 146.926C107.089 146.979 107.005 147.028 106.936 147.062C106.901 147.08 106.844 147.105 106.804 147.108C106.762 147.111 106.722 147.147 106.68 147.157C106.601 147.175 106.512 147.242 106.443 147.283C106.298 147.369 106.151 147.444 105.997 147.514C105.535 147.723 105.11 148.011 104.621 148.164C104.43 148.225 104.245 148.284 104.069 148.383C103.904 148.475 103.746 148.58 103.575 148.662C103.414 148.738 103.252 148.807 103.092 148.887C102.939 148.964 102.803 149.019 102.634 149.043C102.599 149.048 102.57 149.059 102.534 149.059C102.487 149.059 102.56 148.977 102.573 148.961C102.65 148.871 102.751 148.823 102.852 148.773C102.93 148.734 103.013 148.695 103.099 148.695C103.181 148.695 103.013 148.729 102.993 148.737C102.906 148.77 102.821 148.803 102.735 148.838C102.667 148.866 102.588 148.878 102.523 148.913C102.398 148.981 102.277 148.968 102.137 148.968C102.052 148.968 102.002 149.001 101.923 149.023C101.839 149.046 101.767 149.1 101.682 149.112C101.642 149.118 101.58 149.148 101.541 149.163C101.472 149.19 101.408 149.23 101.338 149.254C101.254 149.283 101.171 149.321 101.095 149.365C100.996 149.423 100.878 149.445 100.772 149.488C100.623 149.55 100.468 149.598 100.319 149.657C100.211 149.701 100.101 149.75 99.9905 149.787C99.8952 149.819 99.7955 149.83 99.7015 149.863C99.5497 149.915 99.3725 149.887 99.223 149.946C99.1526 149.975 99.089 149.983 99.0142 149.983C98.9473 149.983 98.8865 150.022 98.8198 150.022C98.7646 150.022 98.7247 150.035 98.6702 150.035C98.6496 150.035 98.6357 150.048 98.6117 150.048C98.5706 150.048 98.5959 150.073 98.5827 150.1C98.5497 150.166 98.5876 150.183 98.6182 150.25C98.6486 150.317 98.6694 150.384 98.7027 150.451C98.7519 150.549 98.7582 150.651 98.788 150.757C98.8095 150.834 98.8185 150.894 98.8198 150.974C98.821 151.052 98.8691 151.119 98.8718 151.195C98.8749 151.28 98.8987 151.351 98.9239 151.433C98.937 151.476 98.9714 151.506 98.986 151.547C99.0012 151.589 99.0026 151.634 99.0178 151.677C99.0623 151.801 99.0511 151.928 99.0734 152.058C99.0872 152.138 99.0973 152.216 99.1089 152.295C99.1188 152.364 99.1564 152.424 99.1681 152.493C99.1899 152.622 99.274 152.723 99.3011 152.844C99.3129 152.897 99.338 152.951 99.3661 152.998C99.4005 153.054 99.4018 153.125 99.4442 153.18C99.5149 153.271 99.5406 153.38 99.6068 153.475C99.6925 153.599 99.7401 153.74 99.8373 153.859C99.9438 153.989 100.04 154.136 100.121 154.283C100.155 154.344 100.194 154.393 100.215 154.46C100.23 154.511 100.242 154.561 100.261 154.611C100.312 154.749 100.358 154.884 100.41 155.02C100.423 155.053 100.468 155.085 100.491 155.114C100.522 155.151 100.547 155.191 100.576 155.231C100.631 155.306 100.655 155.396 100.709 155.472C100.828 155.641 100.928 155.797 101.097 155.922C101.179 155.982 101.233 156.058 101.304 156.123C101.349 156.163 101.413 156.153 101.46 156.123C101.528 156.079 101.61 156.06 101.674 156.013C101.772 155.941 101.914 155.899 101.994 155.802C102.028 155.76 102.042 155.707 102.073 155.663C102.096 155.629 102.134 155.611 102.156 155.576C102.197 155.508 102.174 155.404 102.117 155.351C102.06 155.299 101.933 155.335 101.861 155.313C101.813 155.298 101.748 155.265 101.698 155.283C101.667 155.293 101.663 155.324 101.64 155.287C101.254 154.673 100.993 153.995 100.625 153.371C100.446 153.067 100.298 152.748 100.11 152.45C99.9712 152.228 99.8121 152.021 99.6812 151.794C99.5836 151.624 99.4856 151.434 99.4644 151.237C99.4437 151.045 99.4832 150.857 99.4832 150.665C99.4832 150.569 99.4548 150.457 99.5381 150.393C99.6602 150.3 99.8055 150.384 99.9414 150.396C100.003 150.401 100.075 150.406 100.135 150.392C100.183 150.38 100.136 150.374 100.112 150.382C100.009 150.414 99.9387 150.504 99.8301 150.535C99.7265 150.564 99.8581 150.411 99.8084 150.386" stroke="#FF0000"/>
<path d="M101.369 155.589C101.33 155.731 101.38 155.815 101.476 155.912C101.528 155.964 101.587 156.025 101.591 156.107C101.592 156.154 101.617 156.18 101.656 156.203C101.687 156.222 101.673 156.294 101.708 156.315C101.735 156.331 101.748 156.368 101.786 156.37C101.818 156.371 101.851 156.37 101.883 156.37C101.942 156.37 102.036 156.319 102.091 156.298C102.135 156.282 102.183 156.263 102.228 156.253C102.264 156.245 102.268 156.219 102.296 156.201C102.322 156.183 102.357 156.171 102.385 156.156C102.536 156.072 102.679 156.002 102.846 155.947C102.927 155.92 103.016 155.885 103.093 155.849C103.132 155.831 103.165 155.801 103.204 155.781C103.247 155.759 103.302 155.745 103.341 155.716C103.398 155.675 103.459 155.642 103.516 155.599C103.555 155.57 103.59 155.525 103.633 155.501C103.699 155.464 103.76 155.396 103.831 155.371C103.88 155.354 103.903 155.309 103.948 155.293C104.003 155.273 104.026 155.228 104.078 155.209C104.132 155.189 104.18 155.16 104.231 155.134C104.31 155.095 104.4 155.078 104.472 155.023C104.556 154.959 104.66 154.927 104.745 154.861C104.814 154.807 104.875 154.742 104.941 154.685C105.077 154.567 105.242 154.53 105.395 154.444C105.509 154.38 105.626 154.327 105.747 154.278C105.83 154.244 105.895 154.182 105.98 154.152C106.083 154.115 106.187 154.072 106.287 154.027C106.319 154.013 106.553 153.924 106.417 153.924" stroke="#FF0000"/>
<path d="M99.4572 151.374C99.4399 151.274 99.4226 151.19 99.4601 151.093C99.5176 150.944 99.6102 150.811 99.6978 150.679C99.7838 150.55 99.8725 150.42 99.9645 150.295C100.036 150.198 100.102 150.157 100.223 150.152C100.274 150.15 100.327 150.152 100.379 150.152C100.43 150.152 100.318 150.154 100.31 150.155C100.202 150.168 100.111 150.234 100.017 150.281C99.9347 150.322 99.8491 150.355 99.7694 150.399" stroke="#FF0000"/>
<path d="M98.7938 150.893C98.7684 150.812 98.7655 150.733 98.7107 150.666C98.6874 150.638 98.6952 150.614 98.6832 150.581C98.6623 150.522 98.6411 150.466 98.6239 150.406C98.6119 150.364 98.5777 150.315 98.5726 150.269C98.5669 150.217 98.5104 150.161 98.5076 150.113C98.5059 150.084 98.4882 150.068 98.4823 150.041C98.4768 150.016 98.4878 149.988 98.4809 149.964C98.4743 149.941 98.442 149.868 98.423 149.853C98.3901 149.826 98.4162 149.757 98.4006 149.722C98.3765 149.668 98.3775 149.626 98.3775 149.566" stroke="#FF0000"/>
<path d="M210.671 96.5455H210.845C211.587 96.6182 212.19 96.8606 212.654 97.2727C212.932 98 213.674 98.3637 214.88 98.3637C215.553 98.1697 216.852 97.9394 218.777 97.6727C219.032 97.4303 219.437 97.2364 219.994 97.0909C222.151 97.0909 224.006 97.6243 225.56 98.6909C226.349 98.6909 227.415 99.2 228.761 100.218C229.155 100.97 229.352 101.467 229.352 101.709V102.909C229.213 103.176 229.039 103.309 228.83 103.309L228.9 103.709V103.964C230.43 104.255 231.196 104.788 231.196 105.564V105.855C231.196 106.873 230.454 108.582 228.969 110.982C228.969 111.152 228.598 111.818 227.856 112.982C227.856 113.224 227.647 113.721 227.23 114.473C227.23 114.812 226.905 115.394 226.256 116.218C225.351 117.794 223.972 119.043 222.116 119.964L220.759 120.873C220.342 121.261 218.997 121.818 216.724 122.546C212.294 123.2 210.08 123.94 210.08 124.764C209.778 125.297 209.627 125.988 209.627 126.837L209.697 127.964C209.071 133.515 208.201 136.728 207.088 137.6L205.731 138.219H205.592C204.432 138.219 203.737 136.97 203.505 134.473C203.319 132.267 203.226 130.388 203.226 128.837C203.226 127.721 203.319 126.703 203.505 125.782L203.366 124.509L203.505 122.618C203.505 122.376 202.971 121.915 201.904 121.237C201.719 120.97 201.626 120.521 201.626 119.891C201.626 119.77 202.032 119.43 202.844 118.873C203.168 117.54 203.47 116.873 203.748 116.873C204.142 116.388 204.467 116.073 204.722 115.927C205.534 111.758 205.94 108.194 205.94 105.236C206.102 105.042 206.183 104.776 206.183 104.436V103.636C205.998 102.57 205.488 102.036 204.653 102.036C203.261 102.036 202.299 101.697 201.765 101.018C201.441 101.018 201.186 100.691 201 100.036V99.0909C201.417 98.4606 201.673 98.1455 201.765 98.1455H204.827C205.476 98.1455 206.056 98.0364 206.566 97.8182L207.262 97.8909H207.471L209.245 97.4182C210.01 96.8364 210.485 96.5455 210.671 96.5455ZM214.254 104.509L213.663 104.291C212.805 104.436 212.376 104.618 212.376 104.836C211.564 105.249 211.158 106.388 211.158 108.255C211.019 108.255 210.891 110.836 210.775 116C210.822 116.388 211.065 116.679 211.506 116.873C211.506 117.188 211.796 117.346 212.376 117.346L213.037 117.418C215.518 116.909 217.246 116.061 218.22 114.873C218.313 114.606 218.753 114.133 219.542 113.455C219.542 113.285 220.168 112.643 221.42 111.527C221.42 111.285 221.954 110.703 223.021 109.782C223.716 108.885 224.099 107.927 224.169 106.909C224.169 106.303 223.438 105.346 221.977 104.036C221.56 103.939 221.351 103.83 221.351 103.709V103.636C221.513 103.442 221.594 103.261 221.594 103.091L218.985 102.836C217.826 102.958 217.246 103.249 217.246 103.709C217.246 104.097 216.608 104.291 215.333 104.291C215.077 104.436 214.718 104.509 214.254 104.509ZM251.06 97.9273C252.729 97.9273 253.935 98.4121 254.678 99.3818C255.999 100.158 256.66 100.703 256.66 101.018C257.194 101.673 257.542 102.412 257.704 103.236L259.548 106.546C259.548 107.273 259.768 108.582 260.209 110.473C260.209 111.224 260.371 112.049 260.696 112.946V113.091L260.557 115.637L260.8 117.091V117.346L260.696 118.946L260.8 119.055C260.591 119.321 260.487 119.758 260.487 120.364V121.564C260.325 123.721 260.151 124.8 259.965 124.8C259.71 125.237 259.443 125.855 259.165 126.655L258.435 127.673C258.226 127.673 257.878 128.315 257.391 129.6L255.547 131.818C254.48 133.346 253.599 134.218 252.903 134.437C252.277 134.897 251.315 135.261 250.016 135.528C250.016 135.649 249.796 135.746 249.355 135.818C249.355 136.012 248.381 136.509 246.433 137.309C246.155 137.552 245.853 137.928 245.528 138.437C245.157 138.752 244.891 138.909 244.728 138.909H244.589C243.986 138.909 243.29 138.522 242.502 137.746C242.015 137.697 241.18 137.346 239.997 136.691C239.58 136.691 239.313 136.352 239.197 135.673C238.548 135.479 237.805 134.994 236.971 134.218C236.391 133.637 236.055 133.115 235.962 132.655C235.799 132.655 235.625 131.915 235.44 130.437H235.37L235.44 130.109V129.964L234.918 127.273V126.909C234.918 126.618 235.046 126.146 235.301 125.491L235.37 124.873L235.301 124.182L235.509 123.964C235.509 122.509 235.683 121.127 236.031 119.818L236.24 118.327L236.101 115.637C236.518 113.164 236.866 111.927 237.144 111.927L240.832 106.182C241.829 104.679 243.047 103.285 244.485 102C244.949 101.806 245.598 101.188 246.433 100.145C247.708 98.8849 248.949 98.1455 250.155 97.9273H251.06ZM248.346 105.927C248.253 106.073 247.824 106.412 247.059 106.945C246.526 106.921 246.259 106.812 246.259 106.618H246.189L245.841 106.691L245.389 106.618C244.995 106.691 244.798 106.897 244.798 107.236L244.346 108.327C244.253 108.327 244.102 108.897 243.893 110.036L243.337 110.873L243.406 110.946V111.018C243.058 111.94 242.884 112.533 242.884 112.8C242.722 113.018 242.641 113.224 242.641 113.418V113.964L242.154 118.655L242.223 119.273L242.084 119.637L242.154 119.964L241.98 121.273L242.363 124.8V125.491L243.824 129.818L243.754 130.146L244.137 131.346L244.346 131.418L245.146 131.346C245.262 131.346 245.412 131.455 245.598 131.673H245.841C246.143 131.455 246.363 131.346 246.502 131.346L246.572 131.418C246.572 131.346 246.816 131.152 247.303 130.837C247.79 130.934 248.033 131.079 248.033 131.273H248.103L249.285 130.837C249.401 130.837 250.143 130.109 251.512 128.655C251.952 127.879 252.173 127.394 252.173 127.2L252.103 126.982C252.173 126.982 252.289 126.8 252.451 126.437C252.382 126.267 252.312 126.182 252.242 126.182H252.034C251.176 127.055 250.584 127.503 250.259 127.528L250.19 127.818H250.155C249.83 127.624 249.668 127.37 249.668 127.055C249.83 126.837 250.004 126.727 250.19 126.727C250.19 126.509 250.375 126.121 250.746 125.564L251.407 124.364L251.338 124.291V124.255C251.987 123.406 252.312 122.921 252.312 122.8L253.843 120.255V119.964C253.564 119.382 253.367 118.509 253.251 117.346C253.251 115.552 252.984 114.315 252.451 113.636C252.382 112.982 252.231 112.449 251.999 112.037C251.79 111.115 251.651 110.655 251.581 110.655C251.489 110.194 251.245 109.624 250.851 108.946L250.538 107.782C250.422 107.782 250.306 107.479 250.19 106.873C249.981 106.873 249.83 106.691 249.738 106.327L248.346 105.927ZM253.286 123.491C253.286 123.661 253.182 123.818 252.973 123.964H252.903L252.834 123.891H252.764L252.66 124.109L252.695 124.291L252.312 124.727L252.59 125.055H252.695C252.88 124.885 253.043 124.8 253.182 124.8V124.291C253.182 124.049 253.263 123.806 253.425 123.564V123.491H253.286ZM238.153 133.455L238.745 135.055L239.336 135.128L239.997 134.909L239.336 133.055C239.243 133.055 239.174 132.728 239.127 132.073H239.058L238.884 132.218L238.466 131.891C238.304 131.94 238.2 132.461 238.153 133.455ZM264.94 97.3455C265.241 97.6121 265.926 97.8788 266.992 98.1455L269.88 101.855C270.088 101.855 270.61 105.564 271.445 112.982C272.628 116.715 273.219 120.182 273.219 123.382C273.219 124.934 273.648 126.134 274.507 126.982H274.576L274.681 126.473V125.346C274.681 124.376 274.877 123.794 275.272 123.6C275.736 123.6 276.431 122.982 277.359 121.746L277.533 121.309H277.637C277.823 121.309 277.951 121.588 278.02 122.146L277.951 122.655H278.02C278.299 122.655 278.635 121.697 279.029 119.782L278.924 119.673L277.846 120.073H277.742C277.603 120.073 277.51 119.867 277.464 119.455C277.904 116.909 278.658 114.206 279.724 111.346C280.235 110.255 280.49 109.321 280.49 108.546C280.189 105.733 279.957 104.327 279.794 104.327L279.62 104.109V103.418C279.087 103.2 278.82 102.849 278.82 102.364L279.029 102.182H279.134L279.516 102.473L279.794 102.364C280.049 102.921 280.386 103.2 280.803 103.2H280.977L283.273 101.127L283.76 100.945C283.876 101.358 284.004 101.564 284.143 101.564C284.838 100.521 285.465 100 286.021 100L287.796 98.9818H288.073L288.283 99.2C287.958 99.7576 287.726 100.606 287.587 101.745C287.587 102.376 287.819 103.273 288.283 104.436C288.283 104.727 287.819 105.855 286.891 107.818L286.995 108.764L286.891 109.6C287.285 110.836 289.025 114.497 292.109 120.582L293.292 120.909C293.942 120.909 294.567 119.915 295.17 117.927L295.066 117.818C295.205 117.818 295.344 117.515 295.484 116.909H295.553L295.657 116.982V118.037L295.866 118.218C295.866 117.903 296.133 117.6 296.667 117.309C297.502 115.637 297.919 114.061 297.919 112.582C298.591 111.055 299.125 109.503 299.519 107.927C299.774 107.927 300.099 107.309 300.493 106.073H300.598C300.319 105.515 300.18 104.97 300.18 104.436C300.528 103.006 300.899 102.291 301.293 102.291H301.467C301.629 102.339 301.827 102.776 302.058 103.6L303.068 104.109C303.577 104.109 303.833 103.297 303.833 101.673C303.044 101.382 302.65 101.03 302.65 100.618L302.268 99.7091C302.87 98.9334 303.856 98.2788 305.224 97.7455H305.328C305.676 97.9879 306.036 98.5334 306.407 99.3818L307.277 99.6L308.668 99.2H308.772C308.958 99.2243 309.051 99.4909 309.051 100V100.109C308.471 103.6 307.984 105.346 307.589 105.346H307.172L306.581 104.946C306.28 104.946 306.082 105.321 305.989 106.073C305.804 106.146 305.711 106.352 305.711 106.691V107.309L306.303 107.818H306.511C306.697 107.818 306.894 107.236 307.103 106.073L307.381 105.891L307.589 106.073V106.691L306.998 107.527L307.103 108.655C307.103 110.158 306.28 111.903 304.633 113.891C303.682 114.618 302.789 116.303 301.954 118.946C301.722 119.018 300.934 121.176 299.588 125.418L297.432 130.691C297.269 131.612 296.875 132.364 296.249 132.946C294.973 133.94 293.988 135.006 293.292 136.146C292.596 136.049 291.75 134.703 290.753 132.109C289.175 129.031 288.387 127.152 288.387 126.473C288.225 126.303 287.993 125.612 287.691 124.4C286.624 121.443 285.906 119.758 285.535 119.346C284.537 119.515 284.038 119.758 284.038 120.073L284.143 120.182V120.291C283.725 120.703 283.366 121.624 283.064 123.055C282.507 123.734 281.789 125.455 280.907 128.218C280.119 129.867 279.157 131.479 278.02 133.055C278.02 133.394 277.568 133.94 276.664 134.691C276.501 136.073 276.304 136.764 276.072 136.764C275.423 136.934 274.9 137.515 274.507 138.509H274.402L273.706 138.4L273.393 138.509C273.393 138.219 272.837 137.94 271.723 137.673C271.283 137.091 270.993 136.376 270.854 135.528L270.958 135.418L270.367 133.891L270.541 132.437C270.216 131.879 270.054 131.261 270.054 130.582L270.158 130.473V130.364C269.973 129.782 269.578 127.794 268.975 124.4C268.79 122.8 268.198 119.443 267.201 114.327L266.714 110.8C265.926 107.818 265.299 105.115 264.836 102.691C264.511 102.158 264.349 101.503 264.349 100.727L264.453 97.7455L264.94 97.3455ZM275.168 129.128C274.634 130.218 274.309 130.776 274.193 130.8C274.425 132.085 274.692 132.728 274.994 132.728C275.226 132.728 275.423 132.255 275.585 131.309V130.982C275.585 130.497 275.481 129.879 275.272 129.128H275.168ZM319.139 96H319.905C320.206 96 320.821 96.5333 321.749 97.6C322.583 98.0606 323.65 98.4364 324.949 98.7273C325.969 99.1394 328.926 99.8182 333.82 100.764C334.632 101.055 335.837 101.345 337.438 101.636C337.948 101.952 338.342 102.339 338.62 102.8C339.223 102.921 339.56 103.273 339.629 103.855C339.629 104.655 338.98 105.212 337.681 105.527C336.8 105.697 336.011 105.782 335.316 105.782L325.957 105.709L324.949 105.782C324.578 105.612 323.592 105.467 321.992 105.346C321.992 105.467 321.69 105.649 321.087 105.891C320.762 106.158 320.473 107.273 320.218 109.236V109.673C320.218 112.17 320.809 113.758 321.992 114.437C323.824 115.261 326.213 115.673 329.158 115.673H330.445C332.37 115.673 333.774 116.291 334.655 117.527V117.891C334.655 118.521 333.808 118.982 332.115 119.273L328.567 119.818L327.662 119.637C326.99 119.806 325.633 120.012 323.592 120.255L322.236 120.182C320.566 120.885 319.731 122.582 319.731 125.273C319.614 126.049 319.556 127.176 319.556 128.655V128.728L319.383 129.418V129.528C319.383 130.885 319.997 131.794 321.226 132.255H321.401C324.137 131.964 326.561 131.818 328.671 131.818L331.871 132.182H332.22L332.533 132.073L332.985 132.182L335.072 132H335.176C336.638 132 337.368 132.376 337.368 133.128C336.997 133.661 335.675 134.218 333.403 134.8L333.228 134.618C330.932 135.031 329.414 135.503 328.671 136.037C328.369 136.037 327.5 136.425 326.062 137.2C324.833 137.54 322.096 137.915 317.852 138.328C317.852 138.425 317.655 138.485 317.261 138.509L316.426 138.328L315.765 138.509C313.446 136.861 311.834 135.952 310.929 135.782L310.86 135.709V135.346L311.869 133.928C313.098 132.546 313.712 131.37 313.712 130.4C313.829 130.4 314.002 129.552 314.234 127.855V126.327L314.408 124.473L314.234 123.346L314.478 122.8C314.13 121.952 313.91 120.606 313.817 118.764L313.225 117.964V117.273C313.225 116.473 313.875 115.03 315.173 112.946C315.336 112.485 315.498 110.836 315.66 108C315.452 107.321 315.347 106.291 315.347 104.909C315.161 104.909 314.988 104.23 314.825 102.873L314.895 102.073L313.712 101.309C313.55 101.309 313.272 101.067 312.877 100.582L312.39 100.691L312.286 100.218L312.39 99.7819H312.634L312.982 99.9637L314.652 98.9818L314.478 98.7273C314.802 98.2909 315.765 97.6485 317.365 96.8C317.69 96.2667 318.281 96 319.139 96ZM356.64 97.1273H356.849C357.708 97.1273 358.299 97.5515 358.623 98.4L358.554 98.6546L358.623 98.7273H358.693L359.25 98.5818L360.015 98.6546L362.972 98.3273L365.511 98.8L366.799 98.7273C368.329 98.7273 369.64 99.5515 370.73 101.2C371.077 101.418 371.252 101.794 371.252 102.327L370.625 104.982L370.73 105.527V107.455C370.73 108.57 370.904 109.636 371.252 110.655V110.727C370.718 110.727 369.999 111.37 369.094 112.655L367.494 116.8L364.816 118.727C364.514 119.14 364.363 119.491 364.363 119.782C364.363 120.291 365.001 121.831 366.277 124.4C367.552 128.134 368.805 131.067 370.034 133.2L370.173 134.182V134.728C370.08 134.946 369.953 135.055 369.79 135.055L368.572 134.982C368.248 135.758 367.587 136.34 366.589 136.728H366.52L366.033 136.582V137.2C366.033 137.612 365.964 137.831 365.824 137.855C365.268 137.685 364.699 137.2 364.12 136.4C363.703 135.867 363.378 135.043 363.146 133.928C362.543 133.079 361.824 131.212 360.989 128.328L359.389 124.727L359.319 123.855C359.319 122.861 359.574 122.146 360.085 121.709L359.91 121.527L359.632 121.6C359.632 121.406 358.994 121.309 357.719 121.309L355.771 121.928C353.22 122.146 351.944 122.631 351.944 123.382C351.712 123.6 351.538 126 351.422 130.582C351.422 131.406 351.063 132.788 350.344 134.728C350.228 134.728 350.101 135.479 349.961 136.982C349.66 137.612 349.208 137.928 348.605 137.928C348.372 137.879 348.118 137.588 347.839 137.055V134.4C347.839 133.867 347.712 133.309 347.456 132.728H347.283C347.143 132.728 347.039 132.921 346.97 133.309H346.83L346.691 131.709V130.255L346.517 128.728V127.6C346.517 125.855 346.621 124.824 346.83 124.509L346.378 122.509C345.96 122.121 345.752 121.746 345.752 121.382C345.497 121.237 344.941 121.079 344.082 120.909C343.873 120.667 343.769 120.424 343.769 120.182C343.769 120.037 344.256 119.443 345.23 118.4C345.416 118.061 345.972 117.394 346.9 116.4L346.83 115.6C346.97 115.6 347.225 114.194 347.596 111.382L347.978 109.127L347.596 107.927L347.665 107.273C347.294 105.479 346.529 104.582 345.37 104.582C345.137 104.267 344.685 103.964 344.013 103.673C343.34 103.188 343.004 102.873 343.004 102.727V102.327C343.004 101.745 343.56 101.37 344.673 101.2L345.23 101.055H345.3L345.613 101.127C345.984 101.127 346.668 100.752 347.665 100C349.891 99.2485 351.063 98.7152 351.179 98.4C351.55 97.7212 351.909 97.3818 352.257 97.3818H352.327L353.788 97.7818L356.64 97.1273ZM355.11 104.473V104.727C355.11 105.091 354.797 105.309 354.171 105.382C353.313 106.109 352.884 107.673 352.884 110.073L352.814 112.109L352.884 115.055L352.814 115.527C353.509 116.497 353.938 116.982 354.101 116.982L354.484 117.055L355.11 116.509C358.589 115.467 360.676 114.533 361.372 113.709L362.52 112.109C362.96 111.6 363.494 110.582 364.12 109.055C364.212 109.055 364.422 108.655 364.746 107.855C365.256 107.176 365.511 106.582 365.511 106.073C365.303 105.661 365.07 105.455 364.816 105.455L364.746 105.527H364.607C364.375 105.309 363.888 105.152 363.146 105.055L361.233 105.2C360.56 105.2 360.12 104.958 359.91 104.473L357.092 104.073H356.71C356.2 104.073 355.667 104.206 355.11 104.473ZM381.339 97.9636H381.827L384.54 98.2182H385.34C386.221 98.4849 388.112 98.7394 391.011 98.9818L391.324 99.0546H394.768C396.646 99.0546 398.536 98.8849 400.438 98.5455C400.531 98.7394 401.25 98.9576 402.595 99.2C402.758 99.4182 402.839 99.6243 402.839 99.8182V99.8909C402.839 100.133 402.282 100.824 401.169 101.964L401.795 102.473V102.546C400.728 103.297 400.009 103.915 399.638 104.4C399.336 104.4 399.128 104.618 399.012 105.055C398.316 105.443 397.829 105.636 397.551 105.636H397.307L396.542 104.546L391.428 103.636L391.011 103.745C390.176 103.745 388.796 103.624 386.871 103.382C385.85 103.382 385.132 103.855 384.714 104.8C384.111 105.309 383.763 105.952 383.671 106.727C383.392 107.358 383.253 108 383.253 108.655V108.727L383.427 109.818L383.253 110.146C383.879 111.552 384.551 112.255 385.271 112.255C387.729 113.03 389.643 113.418 391.011 113.418L392.055 113.346L394.768 114.073C395.417 114.291 397.226 114.521 400.195 114.764C400.195 114.861 400.415 114.909 400.856 114.909V115.018L400.925 114.909H400.995C402.015 115.346 402.525 115.855 402.525 116.436C401.946 117.43 400.821 117.927 399.151 117.927H397.412C396.299 118.727 395.742 119.309 395.742 119.673V119.782C396.043 120.097 396.194 120.315 396.194 120.437C396.148 120.776 395.753 120.97 395.011 121.018L391.08 120.618H389.828C386.674 120.352 385.097 119.867 385.097 119.164L384.61 119.018C384.563 119.285 384.355 119.418 383.984 119.418L384.054 119.855C383.404 119.855 383.033 121.14 382.94 123.709V126.437C382.94 128.618 382.755 130.376 382.384 131.709V132.473C382.384 135.237 381.827 137.297 380.714 138.655L380.157 138.8H379.809C379.368 137.903 378.916 137.382 378.453 137.237C377.385 136.606 376.853 135.491 376.853 133.891L377.096 130.8C376.933 130.509 376.853 130.231 376.853 129.964L377.096 128.8V128.546L377.026 128.037L377.096 127.964V127.855L377.026 126.946L377.826 119.164C377.826 118.558 377.13 117.285 375.739 115.346C375.159 114.982 374.87 114.558 374.87 114.073V114C374.87 113.733 375.136 113.321 375.67 112.764L375.6 111.927C375.762 111.927 375.948 111.697 376.156 111.236C376.643 111.14 377.281 110.836 378.07 110.327C378.812 110.23 379.183 110.036 379.183 109.746L379.253 109.236C379.253 108.17 379.02 107.636 378.556 107.636V107.236C378.556 106.849 378.684 106.655 378.939 106.655V106.327C378.939 106.085 379.183 105.443 379.67 104.4C379.879 103.479 379.983 102.667 379.983 101.964C379.983 100.921 379.855 100.085 379.601 99.4546V99.3091L379.809 98.5455C380.296 98.1576 380.807 97.9636 381.339 97.9636ZM428.164 96.8H429.034C429.521 96.8 429.846 97.0909 430.008 97.6727C431.121 98.4485 431.677 99.0667 431.677 99.5273V99.7819L431.156 103.927L431.225 104.473C430.877 105.54 430.506 107.964 430.112 111.746L430.182 111.964C429.927 114.533 429.451 117.661 428.756 121.346C427.921 122.049 427.248 122.449 426.738 122.546C426.344 123.079 426.146 123.649 426.146 124.255V124.727C426.263 125.6 426.459 126.303 426.738 126.837L426.877 127.309C426.181 127.891 425.404 128.412 424.546 128.873L419.606 133.564L419.189 134.109C419.189 134.667 418.157 135.394 416.092 136.291L415.745 137.709L415.223 138.109L414.979 138.037L414.84 138.255C414.284 138.255 413.611 137.625 412.823 136.364C412.521 136.194 412.138 136.073 411.674 136C410.33 134.594 409.239 133.891 408.405 133.891C407.895 133.552 407.489 132.655 407.187 131.2L406.526 129.091V128.618L407.048 124.727V123.928C407.048 123.103 406.874 121.782 406.526 119.964L407.187 119.091L407.118 118.618C407.28 118.158 407.361 117.661 407.361 117.127L407.048 114.4L407.709 110.473C407.709 109.6 408.091 107.673 408.857 104.691L408.788 104.618V104.546L409.205 102.836V101.891C409.413 101.042 409.668 100.618 409.97 100.618C410.503 100.618 410.851 101.406 411.014 102.982L411.327 103.6H411.396C412.046 103.406 412.371 103.176 412.371 102.909V102.364C412.371 102.097 412.463 101.758 412.649 101.345L412.753 101.418H412.823L413.032 101.345V101.418C413.194 101.661 413.275 102 413.275 102.436V102.836C413.461 103.055 413.554 103.285 413.554 103.527L413.414 104.946L413.554 105.636L413.414 106.582L413.484 108.218V109.382C413.484 110.23 413.159 113.127 412.509 118.073L412.44 119.709C412.44 122.57 413.68 124.837 416.162 126.509C416.463 126.509 416.823 126.667 417.24 126.982L418.493 127.164C418.887 126.824 419.293 126.582 419.711 126.437C420.337 125.952 420.731 125.54 420.893 125.2C422.03 124.643 422.598 123.806 422.598 122.691L422.528 121.891C422.784 120.437 423.016 119.709 423.224 119.709L423.155 119.637L423.816 116.836C424.813 110.994 425.59 105.406 426.146 100.073C426.239 100.073 426.286 99.9515 426.286 99.7091V98.9091C426.286 98.7394 426.436 98.4849 426.738 98.1455C427.155 97.2485 427.63 96.8 428.164 96.8ZM444.167 97.3455C444.584 97.3455 444.874 98.0243 445.036 99.3818L444.967 100.036L445.036 100.4L444.862 101.2L445.14 106.655L444.41 124.546V124.8L444.514 129.346C444.213 130.097 444.062 130.643 444.062 130.982C444.062 131.2 444.213 131.479 444.514 131.818L444.584 131.746H444.688L447.332 132.109C451.669 131.067 454.73 130.267 456.516 129.709C457.165 129.224 457.49 128.364 457.49 127.128C457.652 121.406 458 118.546 458.534 118.546C459.113 117.94 459.519 117.637 459.752 117.637L460.204 118.182C460.668 118.182 461.05 117.54 461.352 116.255L461.978 115.673C462.929 115.673 463.485 117.127 463.648 120.037L463.37 131.818L463.474 133.855L463.37 134.328L463.543 136.073C463.474 137.043 463.126 137.528 462.5 137.528C461.34 136.194 460.668 135.528 460.482 135.528H460.134C459.763 135.528 458.905 135.915 457.56 136.691H457.49L455.89 135.891C454.127 136.57 451.947 136.909 449.35 136.909C447.495 136.909 445.268 137.237 442.671 137.891L437 138.655C437 138.461 436.478 138.34 435.435 138.291C434.925 138.073 434.658 137.879 434.635 137.709C436.513 136.376 437.453 135.273 437.453 134.4L437.557 134.328C436.838 133.77 436.478 133.152 436.478 132.473L437 128.509L436.826 127.673C437.082 126.315 437.325 125.358 437.557 124.8L437.453 124.182C437.638 124.182 437.731 123.685 437.731 122.691C438.426 119.2 438.774 116.558 438.774 114.764L438.705 114.4C439.284 109.746 439.574 106.8 439.574 105.564V104.546L439.853 103.418V102.8L439.749 101.6C439.888 99.6849 440.328 98.7273 441.071 98.7273C442.3 98.7273 443.123 98.303 443.54 97.4546L443.645 97.3455H444.167ZM476.519 97.3455C476.937 97.3455 477.227 98.0243 477.389 99.3818L477.319 100.036L477.389 100.4L477.215 101.2L477.493 106.655L476.762 124.546V124.8L476.867 129.346C476.566 130.097 476.415 130.643 476.415 130.982C476.415 131.2 476.566 131.479 476.867 131.818L476.937 131.746H477.041L479.685 132.109C484.022 131.067 487.083 130.267 488.869 129.709C489.518 129.224 489.843 128.364 489.843 127.128C490.005 121.406 490.353 118.546 490.887 118.546C491.466 117.94 491.872 117.637 492.104 117.637L492.556 118.182C493.02 118.182 493.402 117.54 493.705 116.255L494.33 115.673C495.282 115.673 495.838 117.127 496 120.037L495.722 131.818L495.826 133.855L495.722 134.328L495.896 136.073C495.826 137.043 495.478 137.528 494.853 137.528C493.693 136.194 493.02 135.528 492.835 135.528H492.487C492.116 135.528 491.258 135.915 489.912 136.691H489.843L488.242 135.891C486.48 136.57 484.3 136.909 481.703 136.909C479.847 136.909 477.621 137.237 475.023 137.891L469.353 138.655C469.353 138.461 468.831 138.34 467.788 138.291C467.277 138.073 467.011 137.879 466.988 137.709C468.866 136.376 469.805 135.273 469.805 134.4L469.909 134.328C469.19 133.77 468.831 133.152 468.831 132.473L469.353 128.509L469.179 127.673C469.434 126.315 469.678 125.358 469.909 124.8L469.805 124.182C469.991 124.182 470.083 123.685 470.083 122.691C470.779 119.2 471.127 116.558 471.127 114.764L471.057 114.4C471.637 109.746 471.927 106.8 471.927 105.564V104.546L472.206 103.418V102.8L472.101 101.6C472.24 99.6849 472.68 98.7273 473.423 98.7273C474.652 98.7273 475.475 98.303 475.893 97.4546L475.997 97.3455H476.519ZM278.273 157.159C278.504 157.159 279.305 157.584 280.673 158.432C281.229 159.426 281.508 160.129 281.508 160.542V160.723L281.299 162.178L281.403 162.469L280.569 171.959L280.673 172.432C280.487 172.844 280.395 173.293 280.395 173.778V174.178C280.395 175.56 281.322 176.335 283.178 176.505H284.534L285.369 176.578L290.205 176.105L292.675 175.051C293.857 174.323 294.449 173.293 294.449 171.959C294.727 170.917 295.063 169.038 295.458 166.323C295.713 165.572 295.956 165.063 296.188 164.796L296.119 164.323C296.397 164.323 296.606 162.966 296.745 160.251C297.209 159.281 297.858 158.796 298.693 158.796C298.925 158.796 299.076 159.22 299.145 160.068C299.145 160.917 298.809 161.85 298.136 162.869L298.241 162.941V163.05L298.136 163.923L298.415 164.323V165.378C298.415 166.25 298.102 169.402 297.475 174.833V175.232L298.032 177.632C298.032 177.971 297.974 178.141 297.858 178.141L297.962 178.214V178.614L297.232 181.596C296.791 190.881 296.258 195.523 295.632 195.523L295.353 195.232V194.469C295.121 192.82 294.843 191.851 294.518 191.56L293.44 192.542H293.231C292.999 192.542 292.698 191.669 292.327 189.924L292.396 189.814H292.501L292.327 188.469L292.779 184.032C292.779 182.82 292.222 182.008 291.109 181.596L290.274 181.414C288.651 181.681 287.364 182.069 286.413 182.578L286.309 182.468H286.204C285.717 182.856 284.268 183.147 281.856 183.341C280.441 183.875 279.734 184.517 279.734 185.269C278.991 186.239 278.62 187.754 278.62 189.814C277.878 195.996 277.113 199.087 276.324 199.087C275.907 199.669 275.408 199.96 274.829 199.96C274.713 199.96 274.655 199.802 274.655 199.487C274.376 199.487 274.005 199.293 273.541 198.905C273.054 198.614 272.811 198.324 272.811 198.033L273.994 186.541C273.321 184.796 272.706 183.923 272.15 183.923L271.419 183.16V182.578C271.721 182.141 271.872 181.559 271.872 180.832C271.686 180.832 271.535 180.42 271.419 179.596V179.196C271.419 177.96 271.941 177.16 272.985 176.796C274.4 175.874 275.107 175.002 275.107 174.178C275.107 173.329 275.292 172.105 275.663 170.505V169.523L275.594 169.05C275.895 165.923 276.174 163.729 276.429 162.469L276.672 160.832L276.881 158.323V157.741C276.881 157.572 277.345 157.378 278.273 157.159ZM310.869 156.105H311.634C311.935 156.105 312.55 156.638 313.478 157.705C314.313 158.165 315.379 158.542 316.678 158.832C317.699 159.244 320.656 159.923 325.549 160.869C326.361 161.159 327.567 161.451 329.167 161.741C329.677 162.057 330.072 162.444 330.35 162.905C330.953 163.026 331.289 163.378 331.359 163.96C331.359 164.759 330.709 165.317 329.411 165.632C328.529 165.802 327.741 165.887 327.045 165.887L317.687 165.814L316.678 165.887C316.307 165.717 315.322 165.572 313.721 165.451C313.721 165.572 313.42 165.753 312.817 165.996C312.492 166.263 312.202 167.378 311.947 169.341V169.778C311.947 172.275 312.538 173.863 313.721 174.541C315.553 175.366 317.942 175.778 320.888 175.778H322.175C324.1 175.778 325.503 176.396 326.384 177.632V177.996C326.384 178.626 325.538 179.087 323.845 179.378L320.296 179.923L319.392 179.742C318.719 179.911 317.362 180.117 315.322 180.359L313.965 180.287C312.295 180.99 311.46 182.686 311.46 185.378C311.344 186.153 311.286 187.281 311.286 188.76V188.832L311.112 189.523V189.633C311.112 190.99 311.727 191.899 312.956 192.359H313.13C315.867 192.069 318.29 191.923 320.401 191.923L323.601 192.287H323.949L324.262 192.178L324.714 192.287L326.801 192.105H326.906C328.367 192.105 329.097 192.481 329.097 193.232C328.726 193.766 327.404 194.323 325.132 194.905L324.958 194.723C322.662 195.135 321.143 195.608 320.401 196.141C320.099 196.141 319.229 196.529 317.791 197.305C316.562 197.645 313.826 198.02 309.582 198.432C309.582 198.529 309.384 198.59 308.99 198.614L308.155 198.432L307.494 198.614C305.175 196.966 303.563 196.057 302.659 195.887L302.589 195.814V195.451L303.598 194.033C304.827 192.65 305.442 191.475 305.442 190.505C305.558 190.505 305.732 189.657 305.964 187.959V186.433L306.138 184.578L305.964 183.451L306.207 182.905C305.859 182.057 305.639 180.711 305.546 178.869L304.955 178.068V177.378C304.955 176.578 305.604 175.135 306.903 173.051C307.065 172.59 307.228 170.941 307.39 168.105C307.181 167.426 307.077 166.395 307.077 165.014C306.891 165.014 306.717 164.335 306.555 162.977L306.625 162.178L305.442 161.414C305.279 161.414 305.001 161.171 304.607 160.687L304.12 160.796L304.016 160.323L304.12 159.887H304.363L304.711 160.068L306.381 159.087L306.207 158.832C306.532 158.396 307.494 157.753 309.095 156.905C309.419 156.372 310.011 156.105 310.869 156.105ZM353.449 157.705L354.249 157.632C354.551 157.705 354.98 158.444 355.536 159.85C355.745 159.826 355.954 160.323 356.162 161.341L356.267 164.432L356.44 164.759C356.394 166.432 356.522 168.651 356.823 171.414L356.893 172.032C357.937 180.275 358.737 184.36 359.293 184.287L360.928 185.887L360.963 185.996C359.154 187.693 358.296 188.954 358.388 189.778L359.015 192.105L358.633 192.869L358.702 193.56L359.328 196.141L359.363 196.36C359.433 197.087 358.91 197.596 357.797 197.887L357.067 197.232L356.928 197.269C356.974 197.559 356.522 197.887 355.571 198.251C354.805 197.863 354.214 197.705 353.797 197.778H353.553L353.449 196.615L353.762 191.196L353.727 191.087C353.496 189.026 352.486 188.105 350.701 188.323C349.101 188.347 347.593 188.178 346.178 187.814L345.726 187.959H344.822C344.056 188.25 343.105 189.681 341.969 192.251C338.792 196.251 337.087 198.735 336.855 199.705C335.58 201.209 334.861 201.972 334.698 201.996C334.095 202.02 333.782 201.935 333.759 201.742L333.724 201.632C333.678 201.099 334.304 199.863 335.603 197.923L335.742 197.087L335.707 196.723C335.638 196.117 335.151 195.535 334.246 194.978L334.072 194.396V194.287C334.003 193.705 334.942 191.838 336.89 188.687L337.064 187.232C336.971 186.433 336.322 186.117 335.116 186.287C333.376 185.681 332.483 185.184 332.437 184.796L332.333 183.85C332.31 183.656 332.449 183.524 332.75 183.451L336.438 183.705L336.89 183.669C338.884 183.427 340.659 181.171 342.212 176.905C342.63 176.614 342.804 176.117 342.734 175.414C342.966 175.148 343.187 174.723 343.395 174.141L343.256 174.032V173.923L347.048 164.832C347.837 162.408 348.428 160.869 348.822 160.214C348.776 159.899 349.507 159.281 351.014 158.359H351.118L351.744 158.76L353.449 157.705ZM347.535 181.632C348.254 182.19 349.274 182.396 350.596 182.25L351.188 182.396C352.904 182.202 353.681 181.354 353.519 179.85L353.31 176.868C353.101 174.929 352.846 173.329 352.544 172.069L352.614 171.705C352.22 170.784 351.826 170.347 351.431 170.396C351.06 170.444 350.353 172.25 349.309 175.814C348.196 178.529 347.604 180.469 347.535 181.632ZM376.896 157.232H377.104C377.962 157.232 378.554 157.656 378.879 158.505L378.809 158.76L378.879 158.832H378.948L379.505 158.687L380.27 158.76L383.227 158.432L385.767 158.905L387.054 158.832C388.585 158.832 389.895 159.656 390.985 161.305C391.333 161.523 391.506 161.899 391.506 162.432L390.881 165.087L390.985 165.632V167.559C390.985 168.675 391.159 169.741 391.506 170.76V170.832C390.974 170.832 390.254 171.474 389.35 172.76L387.75 176.905L385.071 178.832C384.769 179.244 384.619 179.596 384.619 179.887C384.619 180.396 385.256 181.936 386.532 184.505C387.808 188.239 389.06 191.172 390.289 193.305L390.428 194.287V194.833C390.335 195.051 390.208 195.16 390.046 195.16L388.828 195.087C388.504 195.863 387.843 196.445 386.845 196.833H386.775L386.288 196.687V197.305C386.288 197.718 386.219 197.936 386.08 197.96C385.523 197.79 384.955 197.305 384.375 196.505C383.957 195.972 383.633 195.148 383.401 194.033C382.798 193.184 382.079 191.318 381.244 188.433L379.644 184.832L379.574 183.96C379.574 182.966 379.83 182.251 380.34 181.815L380.166 181.632L379.888 181.705C379.888 181.511 379.25 181.414 377.974 181.414L376.026 182.033C373.475 182.25 372.2 182.735 372.2 183.487C371.967 183.705 371.794 186.105 371.678 190.687C371.678 191.512 371.318 192.893 370.599 194.833C370.483 194.833 370.355 195.584 370.217 197.087C369.915 197.718 369.463 198.033 368.86 198.033C368.628 197.984 368.372 197.693 368.095 197.16V194.505C368.095 193.972 367.967 193.415 367.712 192.833H367.538C367.399 192.833 367.294 193.027 367.225 193.415H367.086L366.947 191.814V190.36L366.772 188.832V187.705C366.772 185.959 366.877 184.929 367.086 184.614L366.634 182.614C366.216 182.226 366.007 181.85 366.007 181.487C365.752 181.341 365.195 181.184 364.337 181.014C364.129 180.772 364.024 180.529 364.024 180.287C364.024 180.141 364.511 179.548 365.486 178.505C365.671 178.165 366.228 177.499 367.155 176.505L367.086 175.705C367.225 175.705 367.48 174.299 367.851 171.487L368.234 169.232L367.851 168.032L367.921 167.378C367.549 165.584 366.784 164.686 365.624 164.686C365.393 164.371 364.941 164.068 364.268 163.778C363.595 163.292 363.259 162.977 363.259 162.832V162.432C363.259 161.85 363.816 161.475 364.929 161.305L365.486 161.159H365.555L365.869 161.232C366.24 161.232 366.923 160.856 367.921 160.105C370.147 159.353 371.318 158.82 371.435 158.505C371.806 157.826 372.165 157.487 372.513 157.487H372.582L374.043 157.887L376.896 157.232ZM375.365 164.578V164.832C375.365 165.196 375.052 165.414 374.426 165.487C373.567 166.214 373.139 167.778 373.139 170.178L373.069 172.214L373.139 175.159L373.069 175.632C373.765 176.602 374.194 177.087 374.356 177.087L374.739 177.16L375.365 176.614C378.844 175.572 380.931 174.639 381.627 173.814L382.775 172.214C383.215 171.705 383.749 170.687 384.375 169.16C384.468 169.16 384.677 168.759 385.002 167.959C385.511 167.281 385.767 166.687 385.767 166.177C385.558 165.766 385.326 165.559 385.071 165.559L385.002 165.632H384.862C384.631 165.414 384.143 165.257 383.401 165.16L381.488 165.305C380.815 165.305 380.374 165.063 380.166 164.578L377.348 164.178H376.966C376.455 164.178 375.922 164.311 375.365 164.578ZM400.69 157.414H400.935C401.839 157.414 403.764 157.862 406.709 158.76C414.826 159.486 418.885 160.044 418.885 160.432C419.186 160.432 419.429 160.602 419.615 160.941L418.815 162.614V162.796C419.256 163.208 419.476 163.486 419.476 163.632C419.94 163.778 420.172 163.887 420.172 163.96V164.141C420.172 164.748 419.429 165.171 417.945 165.414C416.345 165.584 414.594 165.669 412.692 165.669H412.623C411.811 166.153 411.405 166.578 411.405 166.942C411.197 167.523 411.092 168.396 411.092 169.56V171.996C411.092 172.796 410.988 173.826 410.779 175.087L410.849 175.414L409.805 186.796C409.156 191.547 408.831 194.893 408.831 196.833L408.97 197.596V197.923C408.831 198.093 408.727 198.408 408.657 198.869L408.274 199.196H408.136C406.837 198.008 406.187 197.111 406.187 196.505C406.187 196.141 405.885 195.717 405.283 195.232C405.283 194.941 405.155 194.663 404.9 194.396C404.46 193.475 404.239 192.917 404.239 192.723C403.172 191.487 402.639 190.638 402.639 190.178V189.778L402.848 188.905V187.341C402.848 185.79 403.067 183.656 403.508 180.941C403.694 180.941 404.019 178.068 404.483 172.323L404.587 169.959L404.483 167.996L404.726 166.942C404.448 166.044 404.181 165.475 403.926 165.232C403.926 164.699 403.114 164.432 401.491 164.432L401.421 164.287L401.178 164.141L401.108 164.214H400.865C398.546 163.874 397.386 163.268 397.386 162.396C397.154 162.226 397.038 161.826 397.038 161.196C396.574 160.687 396.076 160.299 395.542 160.032L395.369 159.014C395.809 158.626 397.2 158.25 399.542 157.887C400.123 157.572 400.505 157.414 400.69 157.414Z" fill="#EF1A1A"/>
<defs>
<linearGradient id="paint0_linear_57_3" x1="122.82" y1="222.707" x2="28.6473" y2="56.4268" gradientUnits="userSpaceOnUse">
<stop offset="0.0260417" stop-color="#FF1F00"/>
<stop offset="0.364583" stop-color="#FFC700"/>
<stop offset="0.937637" stop-color="#FF9900"/>
</linearGradient>
</defs>
</svg>
