<svg width="35" height="33" viewBox="0 0 35 33" fill="none" xmlns="http://www.w3.org/2000/svg">
<path d="M33.9825 28.7117C32.5871 25.5233 28.9927 21.692 27.5088 20.0248C27.1027 19.5683 27.0592 18.7786 27.4288 18.2738C30.2607 14.41 32.5258 9.97037 33.3054 7.28768C33.6494 6.10261 32.9373 4.85049 31.9341 4.85049H29.0199C28.0593 4.85049 27.4971 5.28824 27.2292 5.98528C24.8756 12.1088 22.8567 14.759 21.4435 16.3079C20.6522 17.1755 19.4184 16.4567 19.4184 15.1366C19.4184 12.5929 19.4184 9.30487 19.4184 6.97317C19.4184 5.84232 18.69 4.92739 17.7916 4.92739L12.4679 4.85049C11.7977 4.85049 11.4149 5.81373 11.8172 6.48909L12.6962 8.09121C13.0269 8.64628 13.2055 9.32163 13.2055 10.0147L13.2009 17.2297C13.2009 18.4848 12.0027 19.098 11.2915 18.2186C8.88507 15.2431 6.79704 9.16684 6.04539 6.26134C5.82797 5.42035 5.20754 4.85246 4.50402 4.85049L1.63328 4.84161C0.55627 4.84161 -0.231107 6.1381 0.061636 7.44346C2.68467 19.1335 8.06663 30.2547 17.658 31.4605C18.603 31.5788 19.4184 30.6126 19.4184 29.4167V25.6248C19.4184 24.5373 20.09 23.6027 20.9535 23.5751C20.9838 23.5741 21.0141 23.5741 21.0444 23.5741C23.5812 23.5741 26.4224 28.2621 27.4164 30.4548C27.7021 31.0858 28.2364 31.4703 28.8141 31.4703H32.6756C33.8024 31.4703 34.5253 29.953 33.9825 28.7117Z" fill="white"/>
</svg>
