<svg width="35" height="33" viewBox="0 0 35 33" fill="none" xmlns="http://www.w3.org/2000/svg">
<path d="M34.5216 16.2016C34.5216 18.4585 34.5284 20.7154 34.5216 22.9786C34.5079 26.2567 32.8536 28.6838 29.9005 30.3986C28.171 31.3946 26.2501 31.8359 24.213 31.8359C19.756 31.8359 15.3058 31.8548 10.8487 31.8296C7.75206 31.8107 5.08604 30.802 2.97374 28.6838C1.66808 27.3726 0.88878 25.8281 0.663194 24.044C0.615343 23.6657 0.608507 23.2938 0.608507 22.9156C0.608507 18.4207 0.601671 13.9258 0.608507 9.43098C0.629015 6.14652 2.28331 3.71943 5.23644 2.0047C6.9796 1.00234 8.90733 0.567355 10.9581 0.567355C15.4015 0.567355 19.8448 0.548443 24.2882 0.57366C27.3985 0.592572 30.0714 1.60754 32.1837 3.73834C33.4757 5.0433 34.2481 6.58781 34.4669 8.35298C34.5558 9.04643 34.5147 9.73989 34.5216 10.427C34.5284 12.3561 34.5216 14.2789 34.5216 16.2016ZM3.14464 16.2016C3.14464 18.5153 3.1378 20.8226 3.14464 23.1362C3.15148 24.7248 3.78038 26.0928 4.95616 27.2276C6.53526 28.7469 8.50401 29.4845 10.7667 29.4971C15.2579 29.5223 19.7423 29.5034 24.2335 29.5034C25.6827 29.5034 27.0636 29.2134 28.3214 28.5452C30.673 27.3032 31.9991 25.475 31.9991 22.9156C31.9991 18.364 31.9991 13.8187 31.9991 9.26708C31.9991 7.69104 31.3771 6.32934 30.2081 5.2009C28.6427 3.6753 26.6671 2.92511 24.4112 2.9125C19.8722 2.88098 15.3399 2.89989 10.8009 2.89989C9.38585 2.89989 8.04601 3.20879 6.81554 3.85181C4.47081 5.10004 3.1378 6.92824 3.14464 9.48772C3.14464 11.7257 3.14464 13.9637 3.14464 16.2016Z" fill="white"/>
<path d="M17.5889 22.884C13.1729 22.884 9.63185 19.6311 9.63868 15.5712C9.64552 11.6185 13.2344 8.37817 17.6162 8.38447C22.0186 8.38447 25.5733 11.6437 25.5664 15.6658C25.5596 19.65 21.9844 22.884 17.5889 22.884ZM17.5889 20.5515C20.5899 20.5515 23.0371 18.3513 23.0371 15.6468C23.0371 12.9298 20.6104 10.717 17.6162 10.717C14.6152 10.717 12.168 12.9172 12.168 15.6216C12.168 18.3387 14.5947 20.5515 17.5889 20.5515Z" fill="white"/>
<path d="M24.8145 7.7919C24.8145 6.89671 25.5596 6.17804 26.4893 6.17804C27.4189 6.17804 28.1641 6.90302 28.1641 7.7919C28.1641 8.66818 27.4189 9.38685 26.5029 9.39315C25.5732 9.39946 24.8145 8.68709 24.8145 7.7919Z" fill="white"/>
</svg>
